<?xml version="1.0" encoding="utf-8"?>
<!-- Generator: Adobe Illustrator 16.0.4, SVG Export Plug-In . SVG Version: 6.00 Build 0)  -->
<!DOCTYPE svg PUBLIC "-//W3C//DTD SVG 1.1//EN" "http://www.w3.org/Graphics/SVG/1.1/DTD/svg11.dtd">
<svg version="1.1" id="Layer_1" xmlns="http://www.w3.org/2000/svg" xmlns:xlink="http://www.w3.org/1999/xlink" x="0px" y="0px"
	 width="34px" height="27.947px" viewBox="0 0 34 27.947" enable-background="new 0 0 34 27.947" xml:space="preserve">
<g>
	<path fill="#FFFFFF" d="M33.989,4.928c0-1.517-1.435-2.868-3.187-2.868H13.891l-2.555-2.055H3.175C1.422,0.02,0.006,1.441,0,3.194
		v1.733c0,0,1.012-1.524,2.73-1.524h28.457C33.48,3.403,33.989,4.928,33.989,4.928z"/>
	<path fill="#FFFFFF" d="M30.814,4.15H3.175C1.422,4.165,0.006,5.587,0,7.341v17.412c0.004,1.754,1.421,3.178,3.175,3.189h27.64
		c1.757-0.008,3.18-1.432,3.186-3.189V7.173C33.989,5.417,32.555,4.15,30.814,4.15z M16.994,22.538
		C12.782,22.537,9,19.959,7.459,16.039c2.066-5.265,8.01-7.858,13.274-5.792c2.653,1.041,4.752,3.14,5.793,5.792
		c-1.544,3.926-5.336,6.506-9.554,6.499H16.994z"/>
	<path fill="#FFFFFF" d="M16.973,11.703c-2.394,0-4.334,1.939-4.334,4.332s1.94,4.333,4.334,4.333c2.393,0,4.332-1.94,4.332-4.333
		l0,0C21.303,13.644,19.364,11.705,16.973,11.703z M16.973,17.985c-1.075,0-1.947-0.871-1.947-1.946
		c0-1.074,0.872-1.946,1.947-1.946c1.074,0,1.945,0.872,1.945,1.946l0,0c-0.002,1.073-0.873,1.942-1.945,1.942V17.985z"/>
</g>
</svg>
