<svg width="43" height="58" viewBox="0 0 43 58" fill="none" xmlns="http://www.w3.org/2000/svg">
<path d="M13.8489 31.4284H12.1178C10.3866 31.4284 9.80961 31.1427 9.23258 29.4284L6.3474 21.1428L3.46222 21.1146C1.15407 21.1146 0 22.2856 0 24.5713L0 53.714C0 55.9997 1.15407 57.1426 3.46222 57.1426H9.80961C12.1178 57.1426 13.5603 55.9997 14.1374 53.714L17.3111 42.2855C17.9295 39.9998 19.0422 38.8565 21.3503 38.8565H28.8518C31.1599 38.8565 32.314 37.7141 32.314 35.4284V24.5713C32.314 22.2856 31.1599 21.1146 28.8518 21.1146L18.7537 21.1428L16.734 29.4284C16.4455 30.857 15.58 31.4284 13.8489 31.4284Z" fill="#ECECEC"/>
<path d="M41.2614 0H2.30798C0.576874 0 -0.288642 1.99999 0.288368 3.42855L6.34723 21.1428H18.7535L19.3305 18.8571C19.4863 18.2388 20.1297 17.7142 20.7731 17.7142H39.2383C41.5464 17.7142 42.7005 15.9999 42.7005 13.7142L42.7005 1.31599C42.7005 0.679425 41.9048 0 41.2614 0Z" fill="#B1B1B1"/>
<path d="M9.23237 29.4284C9.8094 31.1427 10.3864 31.4284 12.1175 31.4284H13.8487C15.5798 31.4284 16.4453 30.857 16.7338 29.4284L18.7535 21.1428H6.34717L9.23237 29.4284Z" fill="#2C2C2C"/>
</svg>
