<svg width="83" height="107" viewBox="0 0 83 107" fill="none" xmlns="http://www.w3.org/2000/svg">
<g style="mix-blend-mode:hard-light" opacity="0.3">
<path d="M32.5 61.5H29.5C26.5 61.5 25.5 61 24.5 58L19.5 43.5L14.5 43.4507C10.5 43.4507 8.5 45.5 8.5 49.5L8.5 100.5C8.5 104.5 10.5 106.5 14.5 106.5H25.5C29.5 106.5 32 104.5 33 100.5L38.5 80.5C39.5718 76.5 41.5 74.4992 45.5 74.4992H58.5C62.5 74.4992 64.5 72.5 64.5 68.5V49.5C64.5 45.5 62.5 43.4507 58.5 43.4507L41 43.5L37.5 58C37 60.5 35.5 61.5 32.5 61.5Z" fill="#1388C4"/>
<path d="M80.006 6.5H12.5C9.50001 6.5 8.00007 10 9.00003 12.5L19.5 43.5H41L42 39.5C42.27 38.418 43.385 37.5 44.5 37.5H76.5C80.5 37.5 82.5 34.5 82.5 30.5L82.5 8.803C82.5 7.689 81.121 6.5 80.006 6.5Z" fill="#E11C59"/>
<path d="M24.5 58C25.5 61 26.5 61.5 29.5 61.5H32.5C35.5 61.5 37 60.5 37.5 58L41 43.5H19.5L24.5 58Z" fill="#131041"/>
</g>
<path d="M56 64.5005V45.5005C56 43.8859 55.598 43.1129 55.2217 42.732C54.8508 42.3566 54.099 41.9507 52.5 41.9507L35.0068 41.9995C33.6263 42.0033 32.504 40.8879 32.5 39.5074C32.4961 38.1267 33.6125 37.0044 34.9932 37.0005L52.4932 36.9507H52.5C54.9008 36.9507 57.1492 37.5692 58.7783 39.2183C60.402 40.862 61 43.1152 61 45.5005V64.5005C60.9999 66.8856 60.4017 69.1332 58.7676 70.7671C57.1333 72.4011 54.8851 72.9995 52.5 72.9995H39.5C37.9359 72.9995 37.1094 73.3787 36.5703 73.8619C35.9702 74.3998 35.3926 75.3648 34.915 77.147C34.9136 77.1522 34.9116 77.1574 34.9102 77.1626L29.4248 97.105L29.4258 97.106C28.8315 99.4831 27.7232 101.523 25.9365 102.953C24.142 104.388 21.9226 105.001 19.5 105.001H8.5C6.11476 105.001 3.8666 104.402 2.23242 102.768C0.598334 101.134 8.16081e-05 98.8857 0 96.5005V45.5005C0 43.1152 0.59801 40.862 2.22168 39.2183C3.85082 37.5692 6.09919 36.9507 8.5 36.9507C8.50814 36.9507 8.51628 36.9506 8.52441 36.9507L13.5244 37.0005C14.9051 37.0141 16.0136 38.1443 16 39.5249C15.9863 40.9054 14.856 42.013 13.4756 41.9995L8.49023 41.9507C6.8979 41.9524 6.14842 42.3573 5.77832 42.732C5.40199 43.1129 5 43.8859 5 45.5005V96.5005C5.00008 98.1145 5.40188 98.8661 5.76758 99.232C6.13338 99.5978 6.88536 100.001 8.5 100.001H19.5C21.0772 100.001 22.108 99.6118 22.8135 99.0474C23.5266 98.4768 24.1686 97.5164 24.5742 95.8941L30.085 75.8531L30.2002 75.439C30.797 73.3832 31.7037 71.5092 33.2334 70.1382C34.9263 68.621 37.0641 67.9995 39.5 67.9995H52.5C54.1147 67.9995 54.8667 67.5976 55.2324 67.232C55.598 66.8664 55.9999 66.1148 56 64.5005Z" fill="#1388C4"/>
<path d="M74.0001 26.5V8.5C74.0001 6.88545 73.5983 6.1334 73.2325 5.76758C72.8667 5.40179 72.1146 5.00002 70.5001 5H6.50007C6.10819 5 5.7454 5.18812 5.46199 5.72656C5.18787 6.24739 5.12803 6.87609 5.25495 7.36914L5.32136 7.57129L5.36824 7.69824L15.8682 38.6982L11.1319 40.3018L0.631907 9.30176L0.632884 9.30078C-0.103031 7.34532 0.121331 5.14046 1.03816 3.39844C2.00471 1.56195 3.89199 0 6.50007 0H70.5001C72.8854 2.04028e-05 75.1335 0.598252 76.7676 2.23242C78.4018 3.86662 79.0001 6.11467 79.0001 8.5V26.5C79.0001 28.8812 78.4079 31.2419 76.9522 33.0615C75.4364 34.9563 73.1906 36 70.5001 36H38.5675C38.5528 36.0075 38.5291 36.019 38.503 36.04C38.4661 36.0699 38.4385 36.1009 38.4229 36.124C38.4209 36.127 38.4193 36.1297 38.418 36.1318L37.4249 40.1064L32.5743 38.8936L33.5743 34.8936C33.8602 33.7491 34.5528 32.8019 35.3624 32.1484C36.1718 31.4951 37.2685 31 38.5001 31H70.5001C71.8093 31 72.5638 30.5436 73.0479 29.9385C73.5922 29.2582 74.0001 28.1187 74.0001 26.5Z" fill="#E11C59"/>
<path d="M38.1748 37L33.9307 54.5869C33.5866 56.2217 32.8318 57.7245 31.3604 58.7432C29.9427 59.7245 28.2198 60 26.5 60H23.5C22.0029 60 20.3009 59.9135 18.8633 58.9551C17.3769 57.9642 16.659 56.3843 16.1279 54.791L9.99316 37H38.1748ZM20.8633 53.1846L20.8672 53.1973L20.8721 53.209C21.3407 54.6148 21.6229 54.7857 21.6367 54.7949C21.6991 54.8365 21.9972 55 23.5 55H26.5C27.7802 55 28.3073 54.7754 28.5146 54.6318C28.6392 54.5456 28.8833 54.3372 29.0488 53.5098L29.0586 53.4609L29.0703 53.4131L31.8252 42H17.0068L20.8633 53.1846Z" fill="#131041"/>
</svg>
