<?xml version="1.0" encoding="utf-8"?>
<!-- Generator: Adobe Illustrator 16.0.0, SVG Export Plug-In . SVG Version: 6.00 Build 0)  -->
<!DOCTYPE svg PUBLIC "-//W3C//DTD SVG 1.1//EN" "http://www.w3.org/Graphics/SVG/1.1/DTD/svg11.dtd">
<svg version="1.1" id="Layer_1" xmlns="http://www.w3.org/2000/svg" xmlns:xlink="http://www.w3.org/1999/xlink" x="0px" y="0px"
	 width="74px" height="100px" viewBox="0 0 74 100" enable-background="new 0 0 74 100" xml:space="preserve">
<path fill="#1388C4" d="M25.929,55h-6.864c-1.114,0-2.301-1.292-2.637-2.355L11.515,37H2.325C1.211,37,0,38.325,0,39.44v58.068
	C0,98.622,1.211,100,2.325,100h18.457c1.113,0,2.267-1.111,2.563-2.188l7.476-27.506C31.118,69.233,32.27,68,33.385,68h20.932
	C55.431,68,56,67.562,56,66.448V39.44c0-1.115-0.569-2.44-1.684-2.44h-22.02l-3.851,15.683C28.176,53.761,27.044,55,25.929,55z"/>
<path fill="#E11C59" d="M71.506,0H1.959c-1.114,0-1.75,1.008-1.414,2.07L11.515,37h20.782l0.906-3.689
	C33.473,32.229,34.605,31,35.72,31h35.786C72.621,31,74,30.426,74,29.312V2.303C74,1.189,72.621,0,71.506,0z"/>
<path fill="#131041" d="M16.427,52.645C16.764,53.708,17.951,55,19.064,55h6.864c1.115,0,2.248-1.239,2.517-2.317L32.297,37H11.515
	L16.427,52.645z"/>
</svg>
