<?xml version="1.0" standalone="no"?>
<!DOCTYPE svg PUBLIC "-//W3C//DTD SVG 1.1//EN" "http://www.w3.org/Graphics/SVG/1.1/DTD/svg11.dtd" >
<svg xmlns="http://www.w3.org/2000/svg" xmlns:xlink="http://www.w3.org/1999/xlink" version="1.1">
<metadata></metadata>
<defs>
<font id="butler_stencilregular" horiz-adv-x="1419" >
<font-face units-per-em="2048" ascent="1505" descent="-543" />
<missing-glyph horiz-adv-x="512" />
<glyph horiz-adv-x="0" />
<glyph horiz-adv-x="682" />
<glyph unicode=" "  horiz-adv-x="512" />
<glyph unicode="&#x09;" horiz-adv-x="512" />
<glyph unicode="&#xa0;" horiz-adv-x="512" />
<glyph unicode="!" horiz-adv-x="602" d="M180 102q0 -49 35.5 -84.5t85.5 -35.5q51 0 86 35t35 85q0 51 -35 86t-86 35q-50 0 -85.5 -35t-35.5 -86zM209 1526h190l-47 -1139h-98z" />
<glyph unicode="&#x22;" horiz-adv-x="970" d="M207 1442h196l-49 -672h-94zM590 1442h196l-49 -672h-96z" />
<glyph unicode="#" horiz-adv-x="1437" d="M82 494v120h295l82 365h-248v121h274l101 428h129l-99 -428h326l100 428h129l-100 -428h266v-121h-293l-83 -365h247v-120h-274l-113 -494h-129l113 494h-328l-112 -494h-129l112 494h-266zM506 614h325l84 365h-327z" />
<glyph unicode="$" horiz-adv-x="1101" d="M67.5 1163.5q9.5 69.5 55.5 139.5q4 6 12.5 16.5t41.5 37.5t73 47.5t109.5 37.5t148.5 18v252h57v-854l201 -131q100 -66 164 -142.5t86.5 -151t13 -146.5t-50.5 -137q-18 -23 -32 -37.5t-50 -41t-76 -43t-108 -30.5t-148 -16v-248h-57v907l-160 104q-65 43 -114.5 84.5 t-93.5 97.5t-63 111.5t-9.5 125zM86 98v394h16q10 -96 35.5 -181t80 -163.5t130.5 -118.5v-27q-79 15 -144.5 39t-91.5 41zM261 1206q-5 -61 37.5 -131t129.5 -127l80 -53v539q-65 -1 -122 -31.5t-88.5 -83t-36.5 -113.5zM565 8q83 3 143.5 32t90.5 73t38 100t-7.5 111.5 t-52.5 108.5t-91 91l-121 78v-594zM727 1411v27q73 -11 135.5 -29.5t88.5 -31.5l26 -13v-344h-19q-7 57 -21.5 111t-40.5 110t-69.5 101t-99.5 69z" />
<glyph unicode="%" horiz-adv-x="1996" d="M289 1014q0 57 6.5 107t25.5 100.5t48.5 86.5t79 58.5t114.5 22.5t115 -22.5t79.5 -58.5t48.5 -86.5t25.5 -100.5t6.5 -107q0 -361 -275 -361q-274 0 -274 361zM418 1014q0 -138 18.5 -214t48 -100t78.5 -24q51 0 80.5 24t47.5 100t18 214q0 105 -10 175.5t-30.5 108.5 t-45.5 53t-60 15q-49 0 -79 -27t-48 -106.5t-18 -218.5zM485 0l934 1442h109l-934 -1442h-109zM1178 410q0 57 6.5 107t25.5 100.5t48.5 86t79 58t114.5 22.5q64 0 113.5 -22.5t79.5 -58t48.5 -86t25.5 -100.5t7 -107q0 -56 -7 -104.5t-25.5 -97t-48.5 -82.5t-79 -55.5 t-114 -21.5q-274 0 -274 361zM1307 410q0 -138 18.5 -214t48 -100t78.5 -24q50 0 79 24t46.5 100t17.5 214q0 139 -18.5 218.5t-48 106.5t-76.5 27q-49 0 -79 -27t-48 -106.5t-18 -218.5z" />
<glyph unicode="&#x26;" horiz-adv-x="1613" d="M147 280q-14 81 8.5 147t70 127.5t99 104t105.5 72.5l16 -22q-38 -26 -70 -64.5t-53.5 -91t-26.5 -109t17 -122t72 -125.5q48 -57 120.5 -83t146 -18.5t142.5 57.5t107 136l-461 663q-58 80 -85 160t-20.5 146.5t36 121.5t83 90.5t121.5 47.5q191 35 295 -84l-24 -19 q-45 48 -109 66t-125 -4q-62 -23 -91.5 -83.5t-19.5 -138.5t58 -149l617 -899q18 -26 41 -45.5t43 -28.5t38 -14t28 -5l11 -1q56 0 95.5 23t46.5 73h24q-1 -54 -20 -98t-50 -70t-66.5 -40.5t-72.5 -16.5q-7 -1 -19 -1.5t-46.5 3t-65 12.5t-66 31t-57.5 55l-120 178 q-18 -57 -62 -109.5t-103 -91.5t-130.5 -59.5t-141.5 -18.5t-140 37t-122 101q-60 78 -74 159zM1057 575q77 108 182 130q79 18 127 -21q32 -26 37.5 -67.5t-25.5 -79.5q-28 -33 -70.5 -36.5t-76.5 25.5q-34 27 -37 68q0 24 -30 20q-45 -6 -91 -63q-1 2 -8 12t-8 12z" />
<glyph unicode="'" horiz-adv-x="495" d="M154 1442h196l-49 -672h-96z" />
<glyph unicode="(" horiz-adv-x="655" d="M162 522q0 194 66.5 398t173.5 363.5t229 244.5l24 -23q-311 -368 -311 -989q0 -633 307 -911l-24 -25q-121 69 -227 213t-172 339t-66 390z" />
<glyph unicode=")" horiz-adv-x="657" d="M-6 1505l24 23q122 -85 229 -244.5t173.5 -363.5t66.5 -398q0 -294 -138.5 -565t-325.5 -377l-25 25q307 278 307 911q0 621 -311 989z" />
<glyph unicode="*" horiz-adv-x="1114" d="M131 1075l51 154l342 -166l-51 379h164l-51 -379l344 166l49 -154l-375 -69l264 -275l-131 -96l-182 336l-182 -336l-129 96l264 275z" />
<glyph unicode="+" horiz-adv-x="1464" d="M115 565v140h547v563h137v-563h547v-140h-547v-565h-137v565h-547z" />
<glyph unicode="," horiz-adv-x="464" d="M124 105q-1 50 34 85t85 35t85 -35q34 -34 39 -91.5t-12 -112.5t-46 -103q-16 -24 -23.5 -34t-26.5 -32.5t-43 -40t-56 -34.5l-13 16q39 28 65.5 61t36.5 61t12 52t-4.5 38.5t-16.5 15.5q-51 7 -80 34q-35 35 -36 85z" />
<glyph unicode="-" horiz-adv-x="909" d="M131 451v139h645v-139h-645z" />
<glyph unicode="." horiz-adv-x="454" d="M113 111q0 51 34.5 86.5t85.5 35.5q50 0 85.5 -35.5t35.5 -86.5t-35.5 -86t-85.5 -35q-51 0 -85.5 35t-34.5 86z" />
<glyph unicode="/" horiz-adv-x="843" d="M29 -43l630 1528h146l-631 -1528h-145z" />
<glyph unicode="0" horiz-adv-x="1247" d="M70 709q0 88 8.5 167.5t28 162.5t55.5 151t86.5 124.5t125 93.5t167.5 48v-29q-57 -17 -100.5 -62t-78.5 -127.5t-53 -215.5t-18 -313q0 -177 18.5 -306.5t53.5 -208t78 -121t100 -57.5v-28q-111 12 -195.5 60.5t-136 116.5t-83.5 161.5t-44 185t-12 197.5zM700 -12v28 q59 15 103 56t78.5 120t52.5 208.5t18 308.5q0 639 -252 718v29q111 -13 196 -63.5t136.5 -122t84.5 -168t45 -191t12 -202.5q0 -106 -12 -197.5t-45 -184.5t-84.5 -161.5t-136.5 -117t-196 -60.5z" />
<glyph unicode="1" horiz-adv-x="788" d="M123 1202l315 258h68v-1276q0 -45 10.5 -77t23.5 -47.5t38 -24t41 -9.5t45 -1v-25h-504v25q31 0 50.5 2t44.5 10.5t39 24.5t24 47t10 75v977q0 166 -189 19z" />
<glyph unicode="2" horiz-adv-x="974" d="M78 0l121 180h485q56 0 107 29t83 88h25l-80 -297h-741zM82 1075q4 81 27.5 145.5t57 103.5t73.5 68t79.5 41.5t71.5 19t52 7.5h20q151 0 250.5 -100t99.5 -242q0 -98 -61.5 -205t-194.5 -254l-27 21q164 247 110 426q-33 111 -139 162q-103 48 -211 13 q-113 -36 -160 -147q-12 -30 -19 -63z" />
<glyph unicode="3" horiz-adv-x="1026" d="M83 152q-6 34 5 65q17 43 61 62t87 2t61.5 -60.5t1.5 -87.5q-14 -41 -55 -57q-7 -1 3.5 -13t44.5 -27t81 -22v-26q-165 19 -264 110q-20 20 -26 54zM94 1128q5 68 27 122.5t51 88.5t69.5 59t73 36.5t71 18t54 7t31.5 0.5q80 0 150 -34.5t115.5 -89.5t65 -127.5t7.5 -145 t-67 -145t-148 -125.5q152 -43 240.5 -144t91.5 -217q4 -111 -30 -196t-94 -135t-126 -77t-141 -36v28q114 23 165 115.5t39 245.5q-3 40 -14.5 80.5t-40.5 86t-71 81.5t-111 62t-156 32v31q90 15 157 59.5t98.5 103.5t38 123.5t-19 126.5t-77.5 107q-38 32 -90 45.5 t-104.5 5.5t-100 -31.5t-81.5 -67t-44 -98.5z" />
<glyph unicode="4" horiz-adv-x="1075" d="M55 416v30l105 160l26 -16q-14 -24 -18 -38t4.5 -20t18.5 -7t34 -1h377v740l125 186l78 -8v-918h196v-108h-196v-168q0 -63 8.5 -106t20 -65.5t34.5 -34t40.5 -13.5t49.5 -2v-27h-509v27q31 0 49.5 2.5t41 13.5t34 33t20 62.5t8.5 99.5v178h-547z" />
<glyph unicode="5" horiz-adv-x="1095" d="M102 156q-8 34 2 67q18 45 61.5 66t88.5 4q44 -15 64.5 -59t5.5 -89q-13 -42 -60 -61q-13 -4 7 -23q36 -33 114 -47v-26q-164 22 -254 112q-21 22 -29 56zM109 688l30 176q121 28 228.5 34.5t189.5 -6.5t151.5 -41.5t118 -67.5t83.5 -86.5t53.5 -96.5t23.5 -100 q10 -96 -9.5 -177t-61 -138t-101.5 -99.5t-127.5 -66t-142.5 -31.5v26q165 28 247 151t33 281q-20 66 -69 121.5t-137.5 98.5t-213.5 49t-296 -27zM199 1253l32 189h709l-53 -189h-688z" />
<glyph unicode="6" horiz-adv-x="1118" d="M86 649q0 211 62 387.5t175.5 288.5t258.5 131v-29q-130 -37 -205 -228t-76 -546q40 115 130 173.5t214 58.5q104 0 181.5 -38.5t120 -104t62 -140t19.5 -158.5q0 -209 -99.5 -324t-281.5 -134v26q87 23 132.5 116.5t45.5 281.5q0 111 -20 192.5t-54.5 126t-75 65.5 t-87.5 21q-115 0 -189 -69.5t-98 -174.5q2 -254 46 -389.5t138 -169.5v-26q-399 55 -399 663zM695 1264q-5 47 24 84q30 38 72 41q11 0 -1 10q-16 12 -49 22v27q117 -27 170 -121q13 -25 9.5 -61t-23.5 -60q-29 -37 -76.5 -42t-85.5 24q-35 29 -40 76z" />
<glyph unicode="7" horiz-adv-x="1128" d="M92 1145l39 297h924l-107 -178h-647q-71 0 -112.5 -27.5t-69.5 -91.5h-27zM399 0q34 587 439 1104h28q-138 -290 -196 -578t-58 -526h-213z" />
<glyph unicode="8" horiz-adv-x="1105" d="M76 326q0 126 103 234.5t241 152.5q-150 90 -211.5 178.5t-61.5 208.5q0 149 88.5 240t229.5 112v-29q-70 -23 -114 -82t-44 -143q0 -128 78 -208.5t250 -149.5q65 22 120 100.5t54 187.5q-5 248 -182 295v31q147 -20 229 -102.5t82 -212.5q0 -94 -79 -192t-191 -126 q370 -180 370 -434q0 -186 -105 -285.5t-284 -117.5v28q91 23 150.5 93t58.5 192q-1 109 -80 187.5t-254 170.5q-34 17 -71 39q-26 -12 -51 -28t-57 -47t-55.5 -68.5t-40 -95t-16.5 -123.5q0 -137 70 -218.5t186 -101.5v-28q-413 26 -413 342z" />
<glyph unicode="9" horiz-adv-x="1103" d="M76 999q0 203 100 318.5t281 136.5v-27q-178 -53 -178 -391q0 -111 20 -192.5t54.5 -127t75 -66.5t87.5 -21q114 0 184 69t97 176q-3 254 -45.5 386t-135.5 165v29q207 -25 301.5 -188t94.5 -455q0 -367 -114.5 -579t-344.5 -244v26q93 24 145.5 108.5t75 242t23.5 423.5 q-86 -229 -338 -229q-84 0 -151 26t-109.5 68.5t-71 100.5t-40 118.5t-11.5 126.5zM175 184.5q4 35.5 24 59.5q29 37 76 42t85 -24q36 -29 41 -76t-24 -84q-30 -38 -74 -41q-3 0 -3 -2q1 -10 30 -26q27 -14 63 -21v-26q-151 24 -209 137q-13 26 -9 61.5z" />
<glyph unicode=":" horiz-adv-x="462" d="M111 195q0 53 35 88.5t87 35.5q50 0 86.5 -36t36.5 -88q0 -50 -36.5 -85.5t-86.5 -35.5q-52 0 -87 35t-35 86zM111 756q0 51 35 87t87 36q50 0 86.5 -36t36.5 -87t-36.5 -87t-86.5 -36q-52 0 -87 36t-35 87z" />
<glyph unicode=";" horiz-adv-x="464" d="M111 756q0 51 35 87t87 36q51 0 87 -36t36 -87t-36 -87t-87 -36q-52 0 -87 36t-35 87zM116 198q1 -50 36 -85q31 -28 79 -35q10 -1 16.5 -15.5t4.5 -38.5t-12 -52t-36 -61t-65 -61l13 -16q32 17 56 34.5t43 40t26.5 32.5t23.5 34q29 48 45.5 103.5t11.5 113t-39 91.5 q-35 35 -84.5 35t-84.5 -35t-34 -85z" />
<glyph unicode="&#x3c;" horiz-adv-x="1228" d="M94 500v88l1039 532v-143l-838 -432l838 -436v-142z" />
<glyph unicode="=" horiz-adv-x="1255" d="M115 254v125h1046v-125h-1046zM115 715v125h1046v-125h-1046z" />
<glyph unicode="&#x3e;" horiz-adv-x="1228" d="M96 -33v142l838 436l-838 432v143l1039 -532v-88z" />
<glyph unicode="?" horiz-adv-x="1179" d="M162 1280q9 37 47.5 85.5t97.5 78.5l8 -27q-28 -16 -40 -36t-7.5 -33t17.5 -15q39 -3 65 -43q26 -37 19 -81t-43 -70q-37 -25 -81.5 -16t-70.5 46q-32 42 -12 111zM414 121q0 54 37.5 91.5t91.5 37.5q55 0 93 -37.5t38 -91.5q0 -55 -38 -93t-93 -38q-54 0 -91.5 38 t-37.5 93zM459 1495q138 27 259 -6t198 -122t83 -216q4 -85 -17 -158t-53.5 -121t-79 -88.5t-83.5 -61.5t-78 -38q-77 -30 -113 -100t-28 -164l-41 -6q-6 40 -6.5 71t6 77t33.5 90.5t73 82.5q35 29 56 49.5t48 58t41 76t21.5 97t1.5 127.5q-7 86 -36.5 151t-73.5 102.5 t-95.5 55.5t-107.5 16z" />
<glyph unicode="@" horiz-adv-x="1792" d="M82 365q8 167 67.5 311.5t155 248.5t219.5 177t264.5 106.5t286.5 28.5q106 -4 202.5 -37.5t176.5 -97t134.5 -150t78 -205.5t6.5 -255q-12 -105 -44 -190t-76 -138.5t-92.5 -91t-102.5 -56.5t-96 -26.5t-82 -7.5q-68 0 -100.5 32.5t-24.5 87.5q-25 -38 -90.5 -79 t-161.5 -41q-80 0 -137.5 50t-80.5 125.5t-16 161.5q5 62 24 125.5t55.5 126t85.5 110.5t119.5 78t152.5 29q28 0 53.5 -4t43 -11t32 -15t23.5 -16.5t15.5 -15.5t9.5 -11l3 -4l12 53l143 -2q-113 -538 -129 -612q-20 -105 62 -105q29 0 64.5 12.5t79 45.5t80.5 82 t66.5 130.5t39.5 182.5q7 45 4 95.5t-8.5 102t-24.5 103t-44 99t-66.5 90t-92.5 75t-122.5 54t-155.5 28.5q-139 10 -263 -24t-218 -102.5t-166.5 -164.5t-116 -210.5t-58.5 -240.5q-2 -9 -4 -25t-3.5 -65.5t2.5 -98t18.5 -115t39.5 -125t72 -119.5t110 -106.5t158 -79 t212 -42.5q68 -6 138.5 4t122 28t93 36.5t63.5 32.5l21 14l16 -21q-6 -6 -17.5 -16t-55 -35t-94.5 -44.5t-136 -35.5t-180 -16q-67 0 -137.5 10.5t-149.5 37t-149.5 66.5t-135 103.5t-109.5 143t-68.5 190.5t-16.5 240zM754 410q-29 -167 19.5 -248t135.5 -90q29 -2 55 5.5 t43.5 19.5t30.5 24.5t19 21.5l6 9q5 27 40 184.5t42 189.5q4 18 4.5 51t-6 75.5t-34.5 73t-75 30.5q-97 0 -175.5 -96.5t-104.5 -249.5z" />
<glyph unicode="A" d="M35 0v27q28 1 44 5.5t42.5 27t52 67.5t63 128t85.5 208h550l-284 723l96 256h21q112 -268 238.5 -580t196.5 -490l70 -179q20 -48 39 -80t32 -48t33.5 -25t30 -10t33.5 -3v-27h-467v27q82 0 82 79q0 56 -41 152l-69 178h-531q-20 -57 -29.5 -89.5t-22.5 -90.5 q-9 -38 -9 -66q1 -14 3 -25q6 -34 22 -71q16 -36 62 -52q41 -15 100 -15h14v-27h-457z" />
<glyph unicode="B" horiz-adv-x="1218" d="M78 0v18q119 0 119 228v954q0 225 -119 225v17h328v-1442h-328zM565 0v27q59 1 99 7.5t84.5 27.5t71 57.5t44 101.5t17.5 156q0 88 -19.5 152t-48.5 98.5t-74.5 55.5t-83.5 27t-90 7v28q49 4 86 20t71 52t52.5 106t18.5 171q0 72 -13.5 127.5t-34.5 89t-52 55.5t-61 31.5 t-67 13.5v29q59 -1 103.5 -5t93 -13.5t84 -25.5t68.5 -42t53.5 -61.5t32.5 -86t12 -114.5q0 -89 -32.5 -157.5t-75.5 -104t-96.5 -58t-85.5 -28t-52 -5.5q35 0 66.5 -2.5t78 -11t84.5 -23.5t78 -43.5t68 -66.5t45.5 -96t17.5 -129q0 -69 -14.5 -123.5t-38 -92.5t-63.5 -65 t-81.5 -43t-101.5 -25.5t-114.5 -13t-129.5 -4.5z" />
<glyph unicode="C" horiz-adv-x="1374" d="M82 721q0 319 170.5 514.5t458.5 220.5v-26q-62 -8 -112.5 -31t-99.5 -74t-82 -127.5t-53 -198t-20 -278.5q0 -159 20.5 -281.5t54 -198.5t82.5 -126.5t99 -72.5t111 -30v-26q-287 25 -458 221.5t-171 513.5zM872 12q138 19 241.5 126t121.5 288h27l22 -317 q-97 -65 -190.5 -92.5t-221.5 -32.5v28zM872 1432v26q134 -3 233.5 -31t178.5 -92l-22 -315h-27q-37 197 -134 296.5t-229 115.5z" />
<glyph unicode="D" horiz-adv-x="1466" d="M90 0v27q64 2 100.5 58.5t36.5 158.5v956q0 95 -36.5 154.5t-100.5 60.5v27h350v-1442h-350zM600 2v25q53 2 96.5 8.5t96.5 25t94 48.5t81.5 82.5t67.5 122.5t43.5 173t16.5 230q0 124 -16.5 226t-43 172t-67 123.5t-82 85t-94 51.5t-97 28t-96.5 10v27 q86 -3 161.5 -14.5t152 -36t139 -61t117.5 -93.5t92.5 -129t59 -171t21.5 -218q0 -122 -21.5 -222t-58.5 -172.5t-92.5 -128t-117.5 -90.5t-139.5 -57.5t-152 -32.5t-161.5 -12z" />
<glyph unicode="E" horiz-adv-x="1220" d="M66 0v27q62 0 85 51t23 162v983q0 102 -22 147t-86 45v27h319v-1442h-319zM545 0v29q56 1 99 5t97 14.5t94.5 27.5t82.5 47t70.5 70.5t50 99.5t28.5 133h27v-426h-549zM545 713v30q37 1 65.5 5t65.5 17t61.5 34t44 59t23.5 90h26v-440h-26q-4 51 -23.5 89t-44.5 59 t-61.5 34t-65.5 17.5t-65 5.5zM545 1413v29h522v-369h-27q-4 62 -22 112t-45 84.5t-66.5 60t-79 40.5t-91 24.5t-94.5 13.5t-97 5z" />
<glyph unicode="F" horiz-adv-x="1103" d="M61 0v27q62 0 85.5 51.5t23.5 161.5v983q0 102 -22.5 147t-86.5 45v27h320v-1194q0 -73 11 -119t34 -67.5t47.5 -28t63.5 -6.5v-27h-476zM541 713v30q37 1 66 5t67 17t63.5 34t45.5 59t24 90h27v-440h-27q-4 51 -24 89t-46 59t-63.5 34t-67 17.5t-65.5 5.5zM541 1415v27 h532v-369h-26q-6 64 -26.5 115.5t-48 86t-69 60.5t-81 40.5t-92 23.5t-94.5 12t-95 4z" />
<glyph unicode="G" horiz-adv-x="1476" d="M80 721q0 193 66 350.5t202.5 261.5t325.5 123v-29q-77 -14 -135 -56.5t-103.5 -123t-69.5 -213t-24 -313.5q0 -146 16.5 -261t45.5 -193t72 -132t92 -82t110 -39v-28q-143 14 -257.5 76.5t-188.5 161.5t-113 225.5t-39 271.5zM834 1432v26q149 -5 251 -31.5t187 -83.5 l-17 -329h-45q-10 110 -40.5 189t-81 126.5t-112 71.5t-142.5 31zM838 12q138 9 197 58.5t59 162.5q0 59 -1 101.5t-6 77t-9 56t-15.5 37.5t-21 23.5t-29.5 12t-36 5.5t-46 1v26h481v-26q-35 0 -52.5 -2.5t-36 -20t-25 -43.5t-13 -85t-7.5 -131.5t-1 -196.5 q-188 -73 -438 -84v28z" />
<glyph unicode="H" horiz-adv-x="1230" d="M43 0v27q74 20 88 53.5t14 164.5v12v10.5v11.5v878q0 149 -16 197t-86 61v27h365v-27q-41 -13 -50.5 -57.5t-9.5 -200.5v-448h561v448q0 157 -9 201t-50 57v27h362v-27q-69 -13 -84.5 -57t-15.5 -201v-878q0 -134 7 -167q12 -53 61 -74q14 -6 32 -11v-27h-362v27 q40 14 49.5 61t9.5 191v395h-561v-395q0 -51 0.5 -79.5t1.5 -58t4 -44t6.5 -28.5t10.5 -20.5t15.5 -11.5t21.5 -10v-27h-365z" />
<glyph unicode="I" horiz-adv-x="704" d="M106 0v27q144 0 144 192v1034q0 91 -36 126.5t-108 35.5v27h498v-27q-71 0 -107 -36t-36 -126v-1034q0 -192 143 -192v-27h-498z" />
<glyph unicode="J" horiz-adv-x="808" d="M0 -317q57 20 104 50t93 83t77 123t50.5 174t19.5 233v631q0 305 -21 372.5t-130 67.5v25h526v-25q-73 0 -118.5 -47.5t-45.5 -142.5v-854q0 -174 -38 -304t-111 -213.5t-171 -131t-227 -66.5z" />
<glyph unicode="K" horiz-adv-x="1488" d="M84 0v27q67 0 99 43.5t32 144.5v1038q0 92 -31 127t-100 35v27h500v-27q-40 0 -64 -4.5t-48.5 -20t-36 -49.5t-11.5 -88v-1038q0 -101 34 -144.5t103 -43.5v-27h-477zM532 684l259 313q133 156 173 237q25 52 25 89q0 90 -149 92v27h563v-27q-51 0 -89.5 -9.5t-95.5 -44 t-124.5 -101t-166 -180t-229.5 -281.5l492 -658q89 -114 270 -114v-27h-219q-42 0 -73.5 2.5t-63 13t-53 19.5t-51.5 35.5t-49.5 46.5t-55 66.5t-61 82t-74.5 105.5q-52 75 -109 153t-88 119z" />
<glyph unicode="L" horiz-adv-x="1249" d="M90 1415v27h485v-27q-73 0 -111 -39.5t-38 -142.5v-1233h-320v27q63 0 88 53.5t25 163.5v999q0 92 -31 132t-98 40zM586 0v29q68 2 121.5 8.5t113.5 22t104.5 45t83.5 73.5t62.5 111.5t30.5 154.5h24v-444h-540z" />
<glyph unicode="M" horiz-adv-x="1847" d="M23 0v27q73 0 126.5 29t84 73.5t48.5 111.5t23.5 129t5.5 140h27q0 -65 4 -119t13.5 -111.5t28.5 -100.5t47.5 -79t71.5 -54.5t99 -18.5v-27h-579zM84 1415v27h408l544 -1190l-100 -270h-27l-600 1302q-26 42 -55.5 69.5t-63.5 39.5t-50 15.5t-47 5.5q-6 1 -9 1zM1282 0 v27q71 0 109.5 48t38.5 165v1202h364v-27q-158 0 -158 -180v-995q0 -115 47.5 -164t122.5 -49v-27h-524z" />
<glyph unicode="N" horiz-adv-x="1652" d="M18 1415v27h379l912 -1176v-266h-66l-981 1262q-24 30 -46.5 53.5t-39 39t-35.5 27t-30 17t-27.5 9.5t-23 4.5t-22.5 1.5t-20 1zM49 0v27q71 0 124 21t84 64.5t50 84t26.5 107t9 103.5t1.5 101v4h29q0 -42 0.5 -65.5t2.5 -68.5t6.5 -73t14 -69t22.5 -67t33.5 -56 t46.5 -46.5t62.5 -28t79.5 -11.5v-27h-592zM1014 1415v27h585v-27q-60 0 -107.5 -17t-77.5 -41t-51 -67.5t-31.5 -77.5t-16 -91.5t-6 -88.5t-0.5 -87v-13h-27v4q0 39 -0.5 60.5t-2 62.5t-5 65.5t-9.5 62t-16.5 61.5t-24.5 53.5t-34 47.5t-45 34.5t-58.5 24t-72.5 7.5z" />
<glyph unicode="O" horiz-adv-x="1511" d="M84 711q0 145 36.5 272t107.5 228.5t184 166t256 78.5v-29q-80 -14 -141.5 -57.5t-109.5 -126t-73 -216.5t-25 -316q0 -183 25 -315t73 -210.5t109 -119t142 -52.5v-28q-144 14 -256.5 75t-183.5 158.5t-107.5 222t-36.5 269.5zM827 -14v28q81 12 142 52.5t109.5 119 t74 211t25.5 314.5q0 147 -17 263t-47 195.5t-75 134.5t-96.5 83.5t-115.5 39.5v29q144 -14 258 -79t185 -166t108 -228t37 -272t-37 -270t-108.5 -222t-184.5 -158t-258 -75z" />
<glyph unicode="P" horiz-adv-x="1187" d="M66 0v27q75 0 105 53t30 196v949q0 108 -28 150t-105 42v25h333v-1161q0 -61 5.5 -104.5t19 -71t28 -43.5t41.5 -23.5t48.5 -9.5t60.5 -2v-27h-538zM561 621v26q64 3 109.5 12.5t90.5 34.5t72.5 65.5t44.5 108t17 160.5q0 95 -17.5 164t-45.5 110t-73 66.5t-90.5 34.5 t-107.5 12v25q108 -3 188.5 -15t153 -40.5t118 -73.5t71.5 -116t26 -167q0 -95 -26 -165t-71.5 -114.5t-118 -72.5t-153 -40t-188.5 -15z" />
<glyph unicode="Q" horiz-adv-x="1503" d="M84 711q0 115 22.5 220t70 196t116 160t165 113.5t212.5 55.5v-29q-80 -14 -142 -57.5t-110 -126t-73.5 -216.5t-25.5 -316q0 -147 17 -261t47 -191t75 -129.5t96.5 -79t115.5 -36.5v-26q-145 13 -258 74t-184 158t-107.5 221.5t-36.5 269.5zM195 -256q61 51 129.5 84 t129 45t118.5 15q18 1 35 1q38 0 71 -5q47 -7 83 -15t55 -15l20 -8l309 -108q54 -18 101 -20h9q43 0 77 14q39 14 58.5 25t47.5 32l18 -20l-153 -127q-48 -37 -95.5 -54.5t-95.5 -19.5q-6 -1 -12 -1q-45 0 -106 17q-69 18 -138 44t-178 73l-158 70q-46 19 -95 19q-2 1 -3 1 q-47 0 -88 -13q-41 -14 -69 -27.5t-50 -29.5zM829 -14v28q81 12 142 52.5t109 119t73 210.5t25 315t-25 317t-73 216t-109.5 125.5t-141.5 57.5v29q116 -11 212.5 -55.5t165 -113.5t116 -160t70 -196t22.5 -220t-22.5 -218t-70 -191t-116 -154.5t-165 -108.5t-212.5 -53z " />
<glyph unicode="R" horiz-adv-x="1323" d="M61 0v27q69 0 98 44.5t29 168.5v1020q0 92 -28.5 123.5t-98.5 31.5v27h326v-1229q0 -102 33 -144t100 -42v-27h-459zM547 657v33q61 2 103 10t84.5 30.5t67.5 61t40.5 103.5t15.5 156q0 93 -16 159t-42 104.5t-68.5 61t-84 30t-100.5 9.5v25q110 -3 189 -13.5t148 -36.5 t111.5 -69t66 -110t23.5 -160q0 -82 -19 -145t-51.5 -104t-81.5 -68.5t-104 -40.5t-124 -17q29 -1 46 -2.5t45 -7t47 -14.5t45 -26t44.5 -40t41.5 -58.5t41 -80t36.5 -105.5t33.5 -135q44 -167 222 -180v-27h-156h-100t-67 13t-49 25t-32.5 56.5t-32 85.5t-34.5 132 q-22 84 -35 134q-47 186 -254 211z" />
<glyph unicode="S" horiz-adv-x="1155" d="M70 1164q10 70 55 139q3 5 10 13.5t33.5 32t58.5 42.5t87 38t118 27v-26q-53 -17 -94.5 -54.5t-59.5 -89.5q-15 -42 -16 -87q0 -11 2 -21q4 -56 46.5 -117.5t119.5 -112.5l338 -221q100 -66 164 -142.5t86 -150.5q16 -52 17 -104q1 -22 -3 -43q-10 -72 -51 -137 q-3 -6 -9.5 -15.5t-32.5 -34.5t-59.5 -46t-93.5 -41t-131 -27v26q115 26 163 120q27 54 27 113q1 45 -15 93q-36 112 -142 186l-338 221q-65 43 -114.5 84.5t-93.5 97.5q-44 55 -63 111q-13 37 -13 81q1 22 4 45zM88 98v394h27q38 -437 381 -480v-26q-78 4 -149 17.5 t-116 29t-79 30.5t-49 25zM592 1430v28q111 -7 208 -30.5t138 -43.5l41 -20v-344h-27q-6 60 -18 111t-38.5 104t-64.5 91.5t-99 67t-140 36.5z" />
<glyph unicode="T" horiz-adv-x="1335" d="M39 1081v361h1253v-361h-26q-2 67 -22.5 122t-50.5 89t-71 59t-75.5 36.5t-73.5 18.5t-55.5 8t-30.5 1h-121v-1216q0 -95 39 -133.5t110 -38.5v-27h-499v27q71 0 109 38.5t38 133.5v1216h-121q-22 0 -41 -1t-59 -7.5t-72.5 -18.5t-71.5 -37t-65.5 -59t-45.5 -88.5 t-21 -122.5h-27z" />
<glyph unicode="U" horiz-adv-x="1466" d="M39 1415v27h510v-27q-38 0 -63.5 -5.5t-50.5 -23t-37.5 -55.5t-12.5 -96v-760q0 -189 102.5 -295t272.5 -106q162 0 265 109t103 300h27v-6q-1 -128 -41 -226q-42 -100 -113.5 -157t-157.5 -84.5t-186 -27.5t-186 33t-150.5 96t-101.5 161t-37 220v747q0 98 -35.5 137 t-107.5 39zM887 1415v27h530v-27h-7q-72 -1 -121 -21q-52 -22 -78 -49t-39 -84.5t-15 -95t-2 -112.5v-4.5v-4v-4.5h-27q0 41 -0.5 64.5t-2.5 61t-6.5 59.5t-13 52t-20.5 47.5t-30 37t-41.5 30t-55.5 17t-71 6.5z" />
<glyph unicode="V" horiz-adv-x="1521" d="M31 1415v27h549v-27q-58 0 -90 -25.5t-36 -60.5t-1.5 -59.5t6.5 -34.5l377 -1010l-88 -225h-29q-111 268 -235 584.5t-192 499.5l-69 182q-17 43 -36 72t-35.5 44t-40 22.5t-38.5 9t-42 1.5zM965 1415v27h508v-27h-2q-50 0 -73.5 -4t-60 -27t-66 -75t-72 -144t-97.5 -239 l-25 8q4 13 13 39q19 56 28.5 85.5t22.5 83.5t14 86v8q1 28 -5 64q-6 40 -27.5 61.5t-61 37.5t-96.5 16z" />
<glyph unicode="W" horiz-adv-x="2162" d="M27 1415v27h551v-27q-43 0 -72 -12t-41.5 -31t-18 -39.5t-2.5 -42t5.5 -33.5t5.5 -18l366 -995l-86 -244h-28l-486 1255q-20 53 -43.5 86.5t-49.5 49t-48 20t-53 4.5zM729 1415v27h551v-27q-33 0 -57.5 -7t-39 -18t-23.5 -27t-11.5 -30.5t-2.5 -31.5t2 -28t4 -23l3 -11 l348 -999l-88 -240h-29l-462 1255q-20 53 -43.5 87t-50.5 49t-49 19.5t-52 4.5zM1608 1415v27h520v-27q-41 0 -68.5 -5.5t-58 -23.5t-55.5 -49.5t-56 -87t-63.5 -132.5t-75.5 -189l-27 6q5 17 16 54q17 56 26 86q8 30 19 82q11 50 11 79t-8 71q-8 39 -29 59t-59 35t-92 15z " />
<glyph unicode="X" horiz-adv-x="1497" d="M45 1415v27h563v-27q-25 0 -44.5 -7t-31.5 -24.5t-12 -43.5t16 -67.5t50 -94.5l626 -971q33 -50 62 -84t50 -52.5t46.5 -28.5t42.5 -13t47 -4v-25h-526v25q71 9 71 68q0 58 -67 163l-641 975q-35 51 -66 86.5t-53.5 54.5t-48 29t-42 12t-42.5 2zM78 0v25h3q30 0 45 1 t45 9.5t53.5 25.5t62 50t79 81.5t96 122t120.5 170.5l22 -22q-14 -27 -42 -79q-36 -66 -52 -98t-38 -83q-20 -47 -20 -71q0 -23 12 -57q10 -28 47 -39t95 -11v-25h-528zM868 1415v27h570v-27q-28 0 -41.5 -0.5t-40.5 -4t-43.5 -11t-45 -22.5t-52.5 -36.5t-58 -55t-68.5 -77 t-78 -102t-92.5 -131.5l-23 20q90 160 113 219q20 54 20 94q0 67 -58 91q-39 16 -102 16z" />
<glyph unicode="Y" horiz-adv-x="1417" d="M20 1417v25h525v-25h-3q-18 0 -28.5 -0.5t-29.5 -5t-28 -12.5t-16 -25t-3.5 -41t18.5 -61.5t43 -85.5l313 -531v-426q0 -115 41.5 -158.5t114.5 -43.5v-27h-500v27q73 0 113.5 43.5t40.5 158.5v361q-134 236 -231 403t-127 215l-30 49q-22 38 -41.5 65.5t-39.5 44.5 t-33.5 27t-34.5 14.5t-30.5 6t-33.5 2.5zM862 1415v27h529v-27q-21 0 -30.5 -0.5t-32 -4t-36 -11t-38 -22.5t-44 -36.5t-48.5 -55.5t-56.5 -78t-62.5 -104t-72 -134l-19 24q85 173 85 275q0 147 -175 147z" />
<glyph unicode="Z" horiz-adv-x="1126" d="M49 0l791 1442h215l-746 -1442h-260zM82 1028l35 414h581l-16 -27q-260 -2 -391.5 -89.5t-173.5 -297.5h-35zM455 0l14 29q458 5 543 448h32l-49 -477h-540z" />
<glyph unicode="[" horiz-adv-x="630" d="M231 -299v1804h369v-26q-31 0 -48 -0.5t-43.5 -4t-41.5 -10t-33 -19.5t-28 -31t-16.5 -46.5t-6.5 -64.5v-1420q0 -43 13.5 -73.5t31.5 -46t50.5 -24t57 -10t64.5 -1.5v-27h-369z" />
<glyph unicode="\" horiz-adv-x="849" d="M31 1501h141l633 -1536h-141z" />
<glyph unicode="]" horiz-adv-x="632" d="M23 -272q40 0 64.5 1.5t57 10t50.5 24t31.5 46t13.5 73.5v1420q0 36 -6.5 64.5t-16.5 46.5t-28 31t-33 19.5t-41.5 10t-43.5 4t-48 0.5v26h368v-1804h-368v27z" />
<glyph unicode="^" horiz-adv-x="1155" d="M182 770l365 672h47l369 -672h-62l-332 422l-325 -422h-62z" />
<glyph unicode="_" horiz-adv-x="1146" d="M0 -156h1147v-94h-1147v94z" />
<glyph unicode="`" horiz-adv-x="667" d="M8 1423l166 52l363 -334h-48z" />
<glyph unicode="a" horiz-adv-x="993" d="M86 193q0 44 11 79t31 62t53 50t74 41.5t96.5 36t116.5 34t139 36.5h1v119q0 147 -63 223q-45 54 -112 54q-26 0 -56 -8l-10 22q33 11 68.5 17t54.5 6h20q81 0 137.5 -29t88 -86t44.5 -128t13 -167v-348q0 -5 0.5 -14t5.5 -31t13.5 -39t27.5 -31t45 -14q5 0 13.5 1.5 t25.5 14.5t22 37l27 -10q-12 -53 -63.5 -96t-127.5 -43q-7 0 -19 0.5t-42 9.5t-52.5 26t-41.5 54.5t-19 89.5v342q-340 -79 -340 -271q0 -25 8 -50.5t25.5 -51t51 -41.5t77.5 -16q58 0 96 24q1 -2 21 -32q-98 -84 -228 -84q-5 0 -13.5 0.5t-32.5 4.5t-46 11t-49 22.5t-46 37 t-32.5 57t-13.5 78.5zM160 774q40 71 112 119l13 -23q-35 -28 -29 -43l4 -4q39 -6 62 -35q19 -26 19 -56q0 -8 -1 -16q-6 -38 -37 -63q-25 -18 -55 -18q-8 0 -15 1q-38 6 -63 38q-19 30 -19 59q0 21 9 41z" />
<glyph unicode="b" horiz-adv-x="1126" d="M31 1430v26l280 55v-710q44 78 132 121t175 43q132 0 231 -67t148.5 -179t49.5 -254q0 -216 -118 -340.5t-311 -140.5v28q97 20 156.5 123t59.5 301q0 461 -287 461q-109 0 -172.5 -73t-63.5 -193v-309q0 -133 55.5 -212.5t145.5 -97.5v-28q-139 15 -231 100 q-52 -54 -109 -78q-37 -16 -37 4v1305q0 54 -21 78.5t-83 36.5z" />
<glyph unicode="c" horiz-adv-x="985" d="M92 471q0 120 51 225.5t154 178.5t240 86v-29q-33 -8 -65 -23.5t-67.5 -49.5t-61.5 -80t-43 -120t-17 -165q0 -98 26 -174.5t69.5 -123t95 -71.5t108.5 -31q14 -1 27 -1q89 0 167 46q88 53 119 123l20 -10q-10 -43 -34.5 -86t-67.5 -86.5t-115 -70.5t-161 -27 q-85 0 -165 34.5t-142.5 96.5t-100 155.5t-37.5 202.5zM643 934v27q166 -15 225 -121q16 -28 16 -54q0 -24 -14 -47q-21 -33 -59 -43q-13 -4 -26 -4q-24 0 -46 13q-33 21 -43 59q-3 12 -3 23q0 25 14 47q17 31 57 43q10 0 -4 14q-36 33 -117 43z" />
<glyph unicode="d" horiz-adv-x="1116" d="M76 485q0 216 118.5 339t311.5 137v-29q-217 -45 -217 -418q0 -473 280 -473q102 0 170 68t68 174v358q0 122 -56.5 197t-140.5 94v29q111 -12 197 -72v426q0 55 -21.5 79t-83.5 36v26l283 55v-1351q0 -73 20 -93t85 -20v-27l-226 -36q-25 -4 -39.5 5t-16.5 20l-1 11v113 q-44 -73 -130 -112t-171 -39q-200 0 -315 141t-115 362z" />
<glyph unicode="e" horiz-adv-x="1005" d="M76 465q0 206 108.5 340t280.5 156v-27q-82 -29 -139.5 -143.5t-57.5 -272.5h477q0 172 -51 278.5t-125 137.5v27q167 -18 260 -135t93 -334h-654q6 -196 84 -293.5t207 -110.5q15 -1 29 -1q79 0 157 41q92 49 121 124l23 -10q-8 -39 -34 -81.5t-70 -84t-115.5 -68 t-157.5 -26.5q-125 0 -225 64t-155.5 174.5t-55.5 244.5z" />
<glyph unicode="f" horiz-adv-x="616" d="M27 946h133q0 200 28.5 321t85 179t150.5 72v-27q-86 -77 -86 -545h229l-4 -26h-225v-746q0 -78 21.5 -108t78.5 -41v-25h-358v25q55 11 67.5 39.5t12.5 109.5v746h-131zM508 1333q-8 19 -8 38t8 38q14 39 53 49q14 4 1 18q-11 12 -32 17v27q51 -7 92.5 -30.5t53.5 -43.5 q17 -22 21.5 -54.5t-5.5 -58.5q-15 -38 -54 -53q-20 -8 -39 -8t-38 8q-38 15 -53 53z" />
<glyph unicode="g" horiz-adv-x="1112" d="M28 -258q5 57 32.5 106.5t74.5 92.5l19 -19q-26 -40 -26 -86q0 -71 62 -155q69 -81 210 -107q46 -9 92 -9q93 0 184 36l14 -25q-129 -62 -264 -75q-36 -4 -70 -4q-91 0 -164 26q-99 35 -139 108q-26 47 -26 95q0 8 1 16zM113 156q0 7 0.5 19t9.5 44.5t25.5 60.5t55 58 t91.5 45q-78 34 -120 108t-42 160q0 118 90 206.5t240 103.5v-27q-152 -36 -152 -283q0 -129 42.5 -196.5t109.5 -87.5v-27q-84 6 -139 29q-31 -6 -59.5 -31t-40.5 -58q-10 -24 -10 -48q0 -7 1 -15q4 -31 42.5 -52.5t107.5 -21.5h245q140 0 202 -16q154 -40 154 -196 q0 -23 -3 -48q0 -6 -1.5 -16t-12.5 -40t-28 -59.5t-53.5 -68.5t-85.5 -72l-16 27q33 26 55.5 56.5t31.5 54.5t13.5 44.5t3.5 32.5v11q0 4 -1.5 11t-12 25t-28 32t-54.5 25t-86 11h-272q-47 0 -85.5 4t-80.5 16.5t-70.5 33.5t-47.5 58t-19 87zM569 340v27q68 17 111 85 t43 199q0 128 -44 196t-110 85v29q145 -12 236 -93q36 54 88.5 82.5t95.5 32.5q8 1 16 1q47 0 78 -36q22 -27 22 -58q0 -5 -1 -10q-4 -38 -35 -63q-25 -22 -58 -22q-5 0 -9 1q-39 3 -64 33q-18 24 -18 49q0 9 2 19q1 5 -7 7q-4 1 -8 1q-23 0 -53 -22q-19 -14 -31 -31 q78 -78 78 -201q0 -119 -90.5 -207.5t-241.5 -103.5z" />
<glyph unicode="h" horiz-adv-x="1038" d="M35 1423v27l280 61v-1321q0 -88 15 -119t69 -44v-27h-344v27q55 16 68.5 47t13.5 116v1123q0 55 -20 77.5t-82 32.5zM375 838q48 55 120 91t140 36q283 0 283 -330v-445q0 -87 15 -119.5t68 -45.5v-25h-344v25q55 16 68.5 48t13.5 117v437q0 112 -53.5 172.5t-159.5 60.5 q-69 0 -131 -55z" />
<glyph unicode="i" horiz-adv-x="501" d="M59 881v24l281 60v-775q0 -89 15 -119.5t69 -43.5v-27h-344v27q55 16 68.5 47t13.5 116v568q0 56 -20 81t-83 42zM127 1239q0 44 30 74t74 30q43 0 74 -30t31 -74q0 -43 -31 -73.5t-74 -30.5q-44 0 -74 30.5t-30 73.5z" />
<glyph unicode="j" horiz-adv-x="493" d="M-4 -442q39 12 69.5 48t47.5 89t28 102t15 110t5 88.5t1 59.5v695q0 57 -20.5 86t-82.5 45v24l281 60v-863q0 -114 -16.5 -203t-45.5 -150t-73.5 -105t-94.5 -69.5t-114 -41.5v25zM127 1239q0 44 30.5 75.5t73.5 31.5t74 -31.5t31 -75.5q0 -43 -31 -73.5t-74 -30.5 t-73.5 30.5t-30.5 73.5z" />
<glyph unicode="k" horiz-adv-x="1046" d="M18 1430v26l283 55v-1323q0 -87 15 -117.5t69 -43.5v-27h-346v27q55 16 68.5 46.5t13.5 114.5v1125q0 56 -21 80.5t-82 36.5zM356 440l193 199q9 8 22 22t46 51t50 69.5t25 66.5t-20 54q-27 19 -86 18h-6v26h460v-26q-44 -1 -80 -11t-99 -45t-153.5 -117.5t-209.5 -211.5 q68 -96 156 -202.5t142 -164.5l54 -59q41 -51 83 -66.5t89 -15.5v-27h-182q-55 0 -89.5 8t-73 38.5t-71.5 71t-94 124.5z" />
<glyph unicode="l" horiz-adv-x="471" d="M47 1430v26l283 55v-1323q0 -87 14.5 -117.5t67.5 -43.5v-27h-344v27q55 16 68.5 46.5t13.5 114.5v1125q0 56 -21 80.5t-82 36.5z" />
<glyph unicode="m" horiz-adv-x="1529" d="M20 881v24l281 60v-777q0 -86 15.5 -117t68.5 -44v-27h-344v27q55 16 68.5 46.5t13.5 114.5v564q0 56 -21 84t-82 45zM358 842q45 55 106.5 89t127.5 34q139 0 202.5 -83t63.5 -249v-443q0 -87 15.5 -119.5t68.5 -45.5v-25h-344v25q55 16 68.5 48t13.5 117v441 q0 231 -184 231q-65 0 -117 -49zM907 838q44 57 107.5 92t130.5 35q132 0 200 -75t68 -253v-447q0 -88 15 -120t69 -45v-25h-344v25q55 16 68.5 48t13.5 117v441q0 231 -186 231q-65 0 -117 -49z" />
<glyph unicode="n" horiz-adv-x="1036" d="M20 881v24l281 60v-777q0 -86 15.5 -117t68.5 -44v-27h-344v27q55 16 68.5 46.5t13.5 114.5v572q0 55 -20.5 79.5t-82.5 41.5zM371 850q52 52 116.5 83.5t128.5 31.5q134 0 208.5 -76t74.5 -252v-447q0 -88 15 -120t69 -45v-25h-344v25q55 16 68.5 48t13.5 117v441 q0 106 -55.5 168.5t-155.5 62.5q-61 0 -115 -41z" />
<glyph unicode="o" horiz-adv-x="1110" d="M82 473q0 198 109.5 334.5t308.5 153.5v-27q-67 -12 -111.5 -56.5t-71 -145t-26.5 -259.5t26.5 -260.5t71 -145.5t111.5 -55v-28q-133 12 -229 81t-142.5 174t-46.5 234zM606 12q67 11 111.5 55t71 145.5t26.5 260.5t-26.5 259.5t-71 145t-111.5 56.5v27 q202 -17 311 -153t109 -335q0 -96 -27 -180t-78 -150t-132 -108t-183 -51v28z" />
<glyph unicode="p" horiz-adv-x="1148" d="M35 881v24l280 60v-160q43 77 130 118.5t173 41.5q200 0 316.5 -141t116.5 -359q0 -217 -120 -342t-313 -139v30q98 19 158 120.5t60 301.5q0 237 -74.5 352t-212.5 115q-101 0 -163.5 -65.5t-70.5 -173.5v-385q7 -114 61 -182.5t136 -84.5v-26q-114 12 -197 73v-419 q0 -87 14.5 -115t69.5 -41v-27h-344v27q56 16 69 44.5t13 111.5v1132q0 53 -20 75t-82 34z" />
<glyph unicode="q" horiz-adv-x="1126" d="M96 487q0 213 114.5 335.5t303.5 140.5v-29q-217 -45 -217 -418q0 -241 72.5 -363t208.5 -122q97 0 159 63.5t68 165.5v395q-4 119 -55.5 189t-131.5 88v31q136 -12 222 -80q41 46 99 66q44 15 44 -7v-1302q0 -86 14.5 -114.5t69.5 -41.5v-27h-344v27q56 16 69 44.5 t13 111.5v462q-50 -58 -127.5 -89t-151.5 -31q-200 0 -315 142.5t-115 362.5z" />
<glyph unicode="r" horiz-adv-x="745" d="M29 881v24l282 60v-775q0 -89 15 -119.5t69 -43.5v-27h-346v27q55 16 68.5 46.5t13.5 116.5v568q0 55 -20 80.5t-82 42.5zM377 840q89 101 209 118q11 1 21 1q60 0 95 -39q27 -33 27 -73v-10q-4 -46 -41 -77q-31 -26 -71 -26h-11q-46 4 -78 40q-23 30 -23 63q0 7 1 15 q2 11 -12 12h-5q-33 0 -84 -39l-10 -8z" />
<glyph unicode="s" horiz-adv-x="854" d="M98 63v279h25q5 -44 13 -81t28 -82t48.5 -78t77 -58.5t111.5 -32.5v-26q-93 4 -168.5 24t-104.5 38zM99 647q-14 36 -14 73q0 62 40 128q2 4 6.5 10.5t22 24t40 32t62.5 28.5t86 18v-29q-52 -12 -79 -46q-25 -32 -25 -72v-6q2 -42 34 -90t90 -85l207 -129 q141 -88 181 -202q14 -41 14 -80q0 -72 -47 -140q-2 -3 -7 -9t-23 -21t-39.5 -27t-59 -24.5t-80.5 -16.5v28q76 18 97 76q8 23 8 46q-1 38 -21 80q-34 68 -103 114l-206 125q-146 98 -184 194zM449 934v27q88 -4 158 -19.5t96 -29.5l26 -13v-250h-27q-28 258 -253 285z" />
<glyph unicode="t" horiz-adv-x="647" d="M35 946h108v291l179 29v-320h243l-6 -26h-237v-619q0 -118 39.5 -168.5t115.5 -50.5q42 0 77 26t48 60l21 -10q-23 -72 -89 -124t-151 -52q-59 0 -101 14.5t-74.5 49t-48.5 96.5t-16 153v625h-104z" />
<glyph unicode="u" horiz-adv-x="1069" d="M35 901v27l291 37v-668q0 -110 57.5 -161.5t153.5 -51.5q78 0 131 39l18 -29q-46 -49 -112.5 -80.5t-133.5 -31.5q-60 0 -108 13t-91 45.5t-67 96t-24 154.5v461v36.5t-1 28.5t-1.5 24.5t-4 17.5t-7 15t-10.5 9t-14 7.5t-20 4t-25.5 4.5t-31.5 2zM651 901v27l277 37v-793 q0 -72 19 -93.5t85 -29.5v-24l-233 -41q-23 -4 -35.5 3.5t-13.5 16.5l-2 10v742v11q0 85 -10 104q-12 23 -63 28z" />
<glyph unicode="v" horiz-adv-x="1052" d="M0 920v26h424v-26q-38 0 -58.5 -14.5t-22.5 -35.5t1 -42t10 -36l6 -14l273 -588l-80 -208h-23l-389 835q-14 29 -31 49.5t-29 30.5t-31 15.5t-25.5 6t-24.5 1.5zM657 920v26h396v-26q-22 0 -33 -0.5t-31.5 -6t-33.5 -15.5t-33.5 -30.5t-38 -50t-39.5 -74.5t-45 -104 l-25 14q6 17 11 36t11 52.5t1.5 62.5t-16.5 56.5t-44 43.5t-80 16z" />
<glyph unicode="w" horiz-adv-x="1533" d="M33 920v26h393v-26q-33 0 -51 -12.5t-20 -30t0.5 -35.5t8.5 -30l5 -13l254 -602l-76 -215h-23l-358 831q-16 34 -34.5 57t-38 33t-32 13t-28.5 4zM557 920v26h395v-26q-37 0 -57.5 -13t-23 -32t0.5 -37.5t9 -31.5l6 -13l252 -596l-78 -215h-21l-358 831q-20 45 -45 70.5 t-41.5 30.5t-38.5 6zM1153 920v26h365v-26q-20 0 -34.5 -2.5t-39 -16.5t-45.5 -39t-47.5 -74.5t-51.5 -119.5l-24 22q5 15 10 37q6 24 6 61q0 34 -10 61q-10 29 -43 50t-86 21z" />
<glyph unicode="x" horiz-adv-x="1060" d="M25 920v26h415v-26q-21 0 -35.5 -7t-22 -22t2 -44t37.5 -69l436 -647q24 -36 51.5 -59.5t57 -32.5t41.5 -11t36 -3v-25h-413v25q30 0 41 15t5 36t-15.5 42.5t-19.5 36.5l-11 15l-443 649q-55 67 -85.5 83t-77.5 18zM27 0v25q25 0 37.5 1t47.5 12.5t65 34t78 71t99 118.5 l23 -22q-19 -29 -30 -49t-23 -48t-10.5 -46.5t11.5 -36t40 -26.5t77 -9v-25h-415zM590 920v26h436v-26q-63 -2 -91 -10q-114 -37 -255 -226l-18 21q13 22 21.5 36.5t19.5 39t14 41.5t0 37t-16.5 32t-41 20.5t-69.5 8.5z" />
<glyph unicode="y" horiz-adv-x="1089" d="M10 920v26h424v-26q-37 0 -57 -15t-22 -37t1.5 -44t9.5 -37l7 -15l270 -579l-80 -211h-22l-387 835q-42 96 -144 103zM164 -410q16 -42 57 -61q22 -10 48 -10q8 0 17 1q36 5 58 23q22 19 37.5 34.5t42 59t45.5 97.5l-25 2q-26 -69 -58 -83q-16 -8 -21 9q-14 49 -56 66 q-21 10 -43 10q-19 0 -38 -8q-42 -16 -62 -58q-10 -22 -10 -44q0 -19 8 -38zM653 920v26h396v-26q-26 0 -43.5 -4t-44.5 -21.5t-51 -50.5t-55.5 -95.5t-66.5 -152.5l-22 18q7 20 13 42.5t13 61.5q5 25 5 47q0 13 -1 24q-4 33 -15.5 64t-44.5 49t-83 18z" />
<glyph unicode="z" horiz-adv-x="884" d="M61 0l543 946h193l-521 -946h-215zM90 676l10 270h398l-15 -28q-165 -9 -254.5 -65.5t-109.5 -176.5h-29zM381 0l16 29q166 14 248.5 85.5t102.5 196.5h28l-18 -311h-377z" />
<glyph unicode="{" horiz-adv-x="641" d="M100 561v23q7 2 24 6.5t24 7t22 9.5t22 14t18.5 20.5t17.5 30t14 41t11.5 54t6 69.5t2.5 88v239q0 166 75.5 244.5t209.5 97.5l2 -20q-69 -25 -106 -98.5t-37 -223.5v-295q0 -65 -15 -117t-38.5 -84.5t-55 -54t-61.5 -30.5t-60 -9q31 0 60.5 -6.5t61 -25t55 -48t38.5 -79 t15 -113.5v-295q0 -150 37 -223.5t106 -97.5l-2 -21q-134 19 -209.5 97.5t-75.5 244.5v240q0 45 -2.5 82t-6.5 65t-11.5 50.5t-13.5 37.5t-17.5 27.5t-19 19t-21.5 12.5t-22 8.5t-24.5 6.5t-23.5 6z" />
<glyph unicode="|" horiz-adv-x="413" d="M150 -336v1841h118v-1841h-118z" />
<glyph unicode="}" horiz-adv-x="653" d="M98 -315q69 24 106.5 97.5t37.5 223.5v295q0 79 22 136t58 84.5t72.5 39.5t76.5 12q-30 0 -60 9t-61 30.5t-54.5 54t-38.5 84.5t-15 117v295q0 102 -19.5 170.5t-49.5 101.5t-75 50l2 20q134 -19 209.5 -97.5t75.5 -244.5v-239q0 -48 2.5 -88t6 -69.5t11.5 -54t14 -41 t17.5 -30t18.5 -20.5t22 -14t22 -9.5t24 -7t24 -6.5v-23q-7 -2 -23.5 -6t-24.5 -6.5t-22 -8.5t-21.5 -12.5t-19 -19t-17.5 -27.5t-13.5 -37.5t-11.5 -50.5t-6.5 -65t-2.5 -82v-240q0 -166 -75.5 -244.5t-209.5 -97.5z" />
<glyph unicode="~" horiz-adv-x="1183" d="M127 438q26 63 60.5 109.5t70 70.5t72 37.5t68 14.5t56.5 -0.5t40 -5.5l14 -5l235 -88q26 -11 69 -12.5t89 7t87.5 34.5t58.5 66l20 -9q-26 -64 -60.5 -111t-69 -70.5t-71 -37.5t-67.5 -15t-56 0.5t-39 6.5l-14 4l-235 88q-28 10 -70 12.5t-88.5 -4t-88.5 -32.5t-61 -68z " />
<glyph horiz-adv-x="0" />
<glyph unicode="&#xa1;" horiz-adv-x="585" d="M180 1047q0 49 34.5 83.5t84.5 34.5q51 0 86 -34t35 -84q0 -51 -35 -85t-86 -34q-50 0 -84.5 34t-34.5 85zM203 -358l47 1122h96l45 -1122h-188z" />
<glyph unicode="&#xa2;" horiz-adv-x="1032" d="M154 471q0 122 53 229.5t160 180.5t247 82v251h37v-1122q105 -6 190.5 46.5t116.5 121.5l21 -10q-8 -40 -30 -80.5t-60 -82t-100 -70.5t-138 -35v-224h-37v224q-203 3 -331.5 136t-128.5 353zM346 494q0 -92 22 -165t61 -119.5t85 -74.5t100 -39v840q-33 -6 -65.5 -20.5 t-70.5 -47.5t-66 -79.5t-47 -123t-19 -171.5zM741 926v28q136 -21 191 -114q31 -56 2 -101q-21 -33 -59 -44.5t-72 7.5q-34 22 -44 60t11 72q19 32 57 43q10 0 -4 13q-26 24 -82 36z" />
<glyph unicode="&#xa3;" horiz-adv-x="1320" d="M66.5 175q2.5 23 8 50.5t23.5 53t40.5 49t59.5 38t80 20.5t103 -3t127 -33q79 -33 106 -53q6 64 -15.5 126.5t-76.5 147.5q-69 107 -110 172h-197v27h184q-97 205 -94 355.5t76.5 242.5t178.5 130t212 18l-4 -25q-82 10 -147.5 -12t-105 -79t-46.5 -142t33.5 -211.5 t128.5 -276.5h364v-27h-346l64 -92q43 -68 56 -143.5t2 -137t-38 -118.5q30 -21 78 -44t81 -36l32 -12q64 -19 123.5 -15t102.5 37t48 84l29 -4q1 -62 -18 -112t-46.5 -79t-60.5 -49t-57 -27t-39 -7q-69 -12 -148.5 26t-204.5 123q-65 -88 -153.5 -120.5t-210.5 -34.5v28 q101 0 179.5 44t121.5 124q-110 75 -195 111q-102 40 -171.5 19t-104 -71t-21.5 -98l-26 -6q-8 19 -5.5 42zM798 1289.5q3 48.5 40 80.5q29 29 80 25q17 -1 8 15q-10 16 -37 34l12 22q94 -57 125 -153q8 -27 -1.5 -59.5t-33.5 -55.5q-34 -32 -82 -29.5t-80 37.5 q-34 35 -31 83.5z" />
<glyph unicode="&#xa4;" horiz-adv-x="1173" d="M37 264l156 156q-99 126 -99 287q0 162 99 288l-156 156l86 84l153 -154q129 99 289 99q163 0 289 -99l156 154l84 -84l-156 -156q98 -124 98 -288q0 -163 -98 -287l156 -156l-84 -86l-156 156q-124 -98 -289 -98q-161 0 -289 98l-153 -156zM217 707q0 -144 102 -246 q108 -103 246 -103q143 0 246 103q102 102 102 246q0 138 -102 245q-98 103 -246 103q-143 0 -246 -103q-102 -102 -102 -245z" />
<glyph unicode="&#xa5;" horiz-adv-x="1269" d="M-49 1417v25h524v-25q-18 0 -27.5 -0.5t-29.5 -4.5t-29 -12t-17.5 -25t-5 -41t18 -62.5t43.5 -87.5l315 -531h351v-30h-351v-140h351v-30h-351v-224q0 -115 40.5 -158.5t113.5 -43.5v-27h-500v27q73 0 113.5 43.5t40.5 158.5v224h-395v30h395v105l-21 35h-374v30h358 q-121 213 -208.5 363.5t-114.5 194.5l-27 44q-26 46 -51 77t-42.5 47t-42 24.5t-37 10t-40.5 3.5zM793 1415v27h528v-27q-26 0 -39.5 -1t-42 -9.5t-50 -24.5t-55.5 -48.5t-67 -79t-76.5 -119.5t-91.5 -166l-16 26q210 422 -90 422z" />
<glyph unicode="&#xa6;" horiz-adv-x="409" d="M145 379h121v-772h-121v772zM145 735v770h121v-770h-121z" />
<glyph unicode="&#xa7;" horiz-adv-x="1089" d="M116 551.5q12 72.5 73 150.5t169 148q-86 75 -121.5 153.5t-23.5 186.5q30 257 303 283l-2 -27q-74 -14 -122.5 -63.5t-57.5 -125.5q-11 -86 27 -149.5t149 -144.5l260 -175q73 -50 124.5 -111t74.5 -133.5t12 -146t-71 -152t-167 -147.5q80 -71 118.5 -150.5 t27.5 -185.5q-8 -62 -31.5 -110.5t-54 -79t-71.5 -51t-79 -29.5t-80 -12v26q73 15 121 64.5t58 124.5q11 89 -23.5 151t-144.5 142l-260 176q-73 51 -123.5 111t-73.5 132t-11 144.5zM214 585.5q3 -39.5 19 -73t45 -67.5t59.5 -60.5t68.5 -52.5q234 -155 243 -162 q61 -40 72 -51q346 237 -33 502q-44 31 -140 95t-112 75q-37 22 -53 38q-63 -41 -102.5 -84t-54.5 -81.5t-12 -78zM242 -385q-28 58 8 109q23 34 64.5 41t76.5 -17q35 -25 43.5 -66t-16.5 -75t-70 -41q-5 1 -4 -2q2 -10 49 -30q11 -5 23 -9v-29q-63 16 -110 50.5t-64 68.5z M659.5 1272q-6.5 41 16.5 76q23 33 59 36q13 0 -3 16q-20 20 -58 34l2 26q62 -16 110 -52t64 -71q12 -23 11.5 -53t-15.5 -53q-25 -34 -67 -41.5t-79 16.5q-34 25 -40.5 66z" />
<glyph unicode="&#xa8;" horiz-adv-x="479" d="M-18 1323q0 40 28 68t66 28q40 0 68 -28t28 -68t-28 -67t-68 -27q-39 0 -66.5 27.5t-27.5 66.5zM309 1323q0 40 27 68t67 28q39 0 68 -28.5t29 -67.5t-29 -66.5t-68 -27.5q-40 0 -67 27t-27 67z" />
<glyph unicode="&#xa9;" horiz-adv-x="1632" d="M61 754q0 153 59.5 292.5t160.5 240.5t240.5 160.5t293.5 59.5q153 0 292.5 -59.5t240.5 -160.5t161 -240.5t60 -292.5t-60 -292.5t-161 -240.5t-240.5 -161t-292.5 -60q-154 0 -293.5 60t-240.5 161t-160.5 240.5t-59.5 292.5zM166 754q0 -132 51.5 -252.5t139 -207.5 t207.5 -138.5t251 -51.5q174 0 323 87t236.5 237t87.5 326q0 131 -51.5 251.5t-138.5 208t-207 139.5t-250 52q-175 0 -324.5 -88t-237 -238t-87.5 -325zM420 733q0 193 109.5 304.5t291.5 111.5q98 0 161 -14t114 -56l-11 -176h-22q-18 223 -242 223q-252 0 -252 -393 q0 -101 17 -176t41.5 -115.5t61 -64.5t66.5 -30.5t66 -6.5q224 0 242 223h22l11 -174q-63 -42 -122 -57t-153 -15q-181 0 -291 112.5t-110 303.5z" />
<glyph unicode="&#xaa;" horiz-adv-x="608" d="M41 1036q0 27 6.5 47.5t24.5 37.5t36 28.5t55.5 24.5t66.5 21t85 22v61q0 84 -40 119t-103 6q-39 -18 -43 -32q0 -3 2 -3q21 0 35 -18q10 -17 6.5 -37.5t-18.5 -32.5t-35.5 -9.5t-32.5 19.5q-17 20 -6 51q22 49 82 80q18 9 43.5 14t42.5 6l16 1q83 0 115.5 -55.5 t32.5 -159.5v-183q0 -3 0.5 -7.5t3 -16.5t6.5 -20.5t14 -16t23 -6.5q2 0 6 1t11.5 8t10.5 20l19 -7q-5 -28 -31 -49.5t-67 -21.5q-4 0 -9.5 0.5t-21 5t-27.5 12.5t-22.5 25.5t-12.5 42.5q-9 -37 -52 -61.5t-99 -24.5q-5 0 -13.5 0.5t-29.5 6t-37 15.5t-29.5 32.5t-13.5 53.5 zM135 1059q0 -30 21 -56t65 -26q64 0 94 63v152q-95 -22 -137.5 -53t-42.5 -80z" />
<glyph unicode="&#xab;" horiz-adv-x="1249" d="M178 545l473 489v-53l-305 -436l305 -424v-53zM596 545l473 489v-53l-303 -436l303 -424v-53z" />
<glyph unicode="&#xac;" horiz-adv-x="1318" d="M84 680v125h1137v-633h-127v508h-1010z" />
<glyph unicode="&#xad;" horiz-adv-x="909" d="M131 451v139h645v-139h-645z" />
<glyph unicode="&#xae;" horiz-adv-x="1638" d="M63 754q0 153 59.5 292.5t160.5 240.5t240.5 160.5t293.5 59.5q153 0 292.5 -59.5t240.5 -160.5t161 -240.5t60 -292.5t-60 -292.5t-161 -240.5t-240.5 -161t-292.5 -60q-154 0 -293.5 60t-240.5 161t-160.5 240.5t-59.5 292.5zM170 754q0 -132 51.5 -252t138 -206.5 t206.5 -138t251 -51.5t251 51.5t206.5 138t138 206.5t51.5 252q0 175 -87 324.5t-236 237t-324 87.5t-324 -87.5t-236 -237t-87 -324.5zM528 358v23q37 0 53.5 24.5t16.5 92.5v551q0 49 -15 63t-55 14v23h211q74 0 123.5 -4.5t95.5 -17.5t72 -36.5t41.5 -62t15.5 -94.5 q0 -107 -54 -152.5t-154 -52.5q29 -2 45.5 -5t42.5 -17t44 -40t39 -75.5t37 -120.5q7 -30 21.5 -49.5t36 -27.5t32.5 -10t31 -3v-23h-86q-98 0 -119.5 23.5t-54.5 162.5q-9 38 -14 60q-9 34 -30 58.5t-45.5 34.5t-47.5 15.5t-38 5.5l-15 -1h-53v-234q0 -57 17.5 -79.5 t55.5 -22.5v-23h-250zM705 741h34q38 0 54 0.5t46 4t43.5 10t33 20.5t28 34.5t15 51.5t6.5 72q0 31 -4 57t-9.5 45t-17 33.5t-21 24t-27.5 16t-29.5 9.5t-34.5 5t-35.5 2h-38.5h-9h-34v-385z" />
<glyph unicode="&#xaf;" horiz-adv-x="737" d="M-33 1223v104h805v-104h-805z" />
<glyph unicode="&#xb0;" horiz-adv-x="780" d="M117 1243q0 110 78.5 188t187.5 78t187.5 -78t78.5 -188q0 -109 -78.5 -186.5t-187.5 -77.5t-187.5 77.5t-78.5 186.5zM182 1243q0 -83 59 -141t144 -58q82 0 140.5 58t58.5 141q0 82 -58.5 140.5t-140.5 58.5q-84 0 -143.5 -58.5t-59.5 -140.5z" />
<glyph unicode="&#xb1;" horiz-adv-x="1245" d="M84 0v125h1063v-125h-1063zM84 627v127h467v342h127v-342h469v-127h-469v-340h-127v340h-467z" />
<glyph unicode="&#xb2;" horiz-adv-x="530" d="M61 1268q3 50 22.5 86.5t45 52.5t51 25t42.5 10h18q69 0 114 -45t45 -109q0 -45 -23 -89.5t-83 -125.5q-20 -26 -56.5 -80t-62.5 -95l-27 -40h185q57 0 86 53h20l-37 -135h-338l205 311q89 132 43 218q-29 54 -93 60q-66 8 -106 -41q-21 -24 -28 -60z" />
<glyph unicode="&#xb3;" horiz-adv-x="538" d="M71.5 846q-3.5 16 2.5 28q6 21 26 30t41 1q20 -8 29 -27.5t0 -39.5q-11 -22 -27 -27q-5 -1 3.5 -7.5t34 -13t59.5 -6.5q67 0 102.5 44.5t28.5 121.5q-3 24 -12 46t-27.5 45t-54 38.5t-84.5 18.5v24q68 12 104 55t30.5 93t-46.5 84q-30 25 -71 25.5t-74 -24.5t-40 -67 l-24 2q3 43 22 74t40.5 45.5t50.5 22.5t41 9t22 1q44 0 81.5 -22t56 -57t21 -74.5t-23.5 -80.5t-76 -69q69 -16 108.5 -64t41.5 -102q1 -58 -20.5 -101t-56.5 -64.5t-70 -31.5t-70 -10q-54 0 -95 15.5t-61 39.5q-9 9 -12.5 25z" />
<glyph unicode="&#xb4;" horiz-adv-x="714" d="M178 1141l363 334l166 -52l-482 -282h-47z" />
<glyph unicode="&#xb5;" horiz-adv-x="1060" d="M23 901v25l290 39v-682q4 -103 61 -152t150 -49q79 0 133 45l19 -27q-58 -73 -159.5 -99t-203.5 11v-358q0 -75 20 -99t85 -30v-27l-232 -39q-23 -4 -35 3.5t-13 17.5l-1 10v1262q0 92 -8 111q-11 26 -56 33q-17 3 -50 5zM639 901v25l276 39v-795q0 -72 19.5 -92.5 t85.5 -28.5v-26l-234 -39q-23 -4 -35.5 3.5t-14.5 16.5l-1 10v742q0 92 -7 110q-10 26 -54 32q-13 2 -35 3z" />
<glyph unicode="&#xb6;" horiz-adv-x="1277" d="M74 1024q0 98 30 173t78.5 120t117.5 74t137.5 39.5t148.5 11.5h2h119v-1985h-355v27q42 0 79 9t74 31t59 68t22 111v911q-90 0 -161 9.5t-139 37t-113 72t-72 118.5t-27 173zM831 -543v1985h289v-27q-76 0 -122 -65.5t-46 -173.5v-1434q0 -121 40.5 -189.5t113.5 -68.5 v-27h-275z" />
<glyph unicode="&#xb7;" horiz-adv-x="516" d="M160 612q0 40 28 68.5t68 28.5t68 -28.5t28 -68.5q0 -38 -28 -66t-68 -28t-68 28t-28 66z" />
<glyph unicode="&#xb8;" horiz-adv-x="544" d="M115 -375q6 20 24.5 28.5t38.5 0.5q20 -7 28.5 -25.5t2.5 -38.5q-8 -17 -21 -20q-4 -1 1.5 -6.5t23.5 -10.5t45 -4q55 0 89 32t34 89q0 24 -9.5 50t-34 55t-66.5 38t-107 -1l16 43q105 31 171 10t95.5 -67.5t22.5 -102.5q-6 -51 -30 -87t-57 -53t-63.5 -24t-60.5 -6 q-37 0 -68.5 10.5t-44.5 20t-20 18.5q-20 20 -10 51z" />
<glyph unicode="&#xb9;" horiz-adv-x="428" d="M86 1327l150 115h32v-568q0 -26 6.5 -42t19 -22.5t22.5 -8.5t26 -2v-21h-240v21q25 0 40 3.5t27.5 21t12.5 50.5v422q0 74 -82 11z" />
<glyph unicode="&#xba;" horiz-adv-x="667" d="M70 1098q0 350 262 350q61 0 108 -20.5t75 -54t46 -80.5t24.5 -94t6.5 -101q0 -334 -260 -334q-262 0 -262 334zM174 1098q0 -78 9 -136t23.5 -91.5t36 -53.5t42 -26.5t47.5 -6.5t48 6.5t42 26.5t34.5 53.5t22 91.5t8.5 136q0 98 -12.5 166t-36 101t-49 46.5t-57.5 13.5 q-34 0 -60 -13.5t-49.5 -47t-36 -100.5t-12.5 -166z" />
<glyph unicode="&#xbb;" horiz-adv-x="1247" d="M170 68v53l303 424l-303 436v53l473 -489zM588 68v53l305 424l-305 436v53l473 -489z" />
<glyph unicode="&#xbc;" horiz-adv-x="1277" d="M27 74l1140 1378h103l-1143 -1378h-100zM178 1395l160 133h35v-658q0 -29 6.5 -47t20 -25t23.5 -8.5t28 -1.5v-20h-254v20q20 0 32 2t25.5 9.5t20 25t6.5 45.5v496q0 25 -8 35.5t-22.5 6.5t-28.5 -12t-32 -22zM641 217v16l348 517l43 -2v-476h103v-55h-103v-82 q0 -40 5.5 -64t18.5 -34t23.5 -12t32.5 -2v-23h-266v23q21 0 32.5 2.5t24 12.5t18 32.5t5.5 60.5v86h-285zM711.5 285q-0.5 -10 5.5 -11.5t24 -1.5h185v336l-201 -291q-13 -22 -13.5 -32z" />
<glyph unicode="&#xbd;" horiz-adv-x="1314" d="M27 74l1140 1378h103l-1143 -1378h-100zM178 1395l160 133h35v-658q0 -29 6.5 -47t20 -25t23.5 -8.5t28 -1.5v-20h-254v20q20 0 32 2t25.5 9.5t20 25t6.5 45.5v496q0 25 -8 35.5t-22.5 6.5t-28.5 -12t-32 -22zM799 0l235 356q97 147 50 243q-29 61 -99 73 q-71 12 -121 -37q-32 -31 -41 -80l-22 6q3 58 24.5 100t50 60.5t56.5 29t48 11.5h19q80 0 131.5 -51.5t51.5 -126.5q0 -49 -27 -97.5t-98 -144.5q-23 -31 -64.5 -93t-71.5 -109l-30 -46h211q67 0 104 60h21l-43 -154h-385z" />
<glyph unicode="&#xbe;" horiz-adv-x="1312" d="M27 74l1140 1378h103l-1143 -1378h-100zM103 853q-3 18 3 32q7 23 30 33.5t46 1.5t33.5 -32t1.5 -46q-14 -25 -27 -27q-5 -1 3.5 -8.5t35.5 -15t66 -7.5q81 0 117.5 48.5t27.5 140.5q-3 27 -12.5 52t-30.5 52.5t-61.5 45.5t-95.5 22v22q77 13 117.5 61.5t34.5 104.5 t-52 94q-37 26 -80 27t-81 -27.5t-46 -74.5l-27 6q2 40 16.5 71.5t37 48.5t43.5 28.5t45.5 15.5t34.5 5t18 1q51 0 93 -25t63 -64.5t24 -85t-26 -91.5t-86 -78q79 -16 123.5 -70.5t46.5 -116.5q1 -54 -15.5 -96.5t-42 -67.5t-60 -41.5t-65 -22t-61.5 -5.5q-119 0 -178 59 q-11 12 -14 30zM641 217v16l348 517l43 -2v-476h103v-55h-103v-82q0 -40 5.5 -64t18.5 -34t23.5 -12t32.5 -2v-23h-266v23q21 0 32.5 2.5t24 12.5t18 32.5t5.5 60.5v86h-285zM711.5 285q-0.5 -10 5.5 -11.5t24 -1.5h185v336l-201 -291q-13 -22 -13.5 -32z" />
<glyph unicode="&#xbf;" horiz-adv-x="1204" d="M207 -186q-4 85 17 158t53 120.5t79 88t84 61t78 37.5q77 30 114.5 100t29.5 164l38 6q6 -40 6.5 -71t-6 -77t-33.5 -91t-73 -83q-35 -30 -55.5 -49.5t-48 -57t-41 -75.5t-21.5 -96t-2 -127q7 -88 37.5 -154t77 -103t99.5 -53.5t112 -13.5l8 -26q-140 -31 -264.5 1 t-203.5 122t-85 219zM532 838q0 55 38 93t94 38q54 0 91.5 -38t37.5 -93q0 -54 -37.5 -91.5t-91.5 -37.5q-55 0 -93.5 37.5t-38.5 91.5zM837.5 -245q7.5 44 43.5 71q37 24 81 15t70 -46q31 -43 12 -110q-9 -36 -44 -82t-91 -76l-10 24q24 15 34 34t6 31.5t-17 14.5 q-40 3 -66 43q-26 37 -18.5 81z" />
<glyph unicode="&#xc0;" d="M35 0v27q28 1 44 5.5t42.5 27t52 67.5t63 128t85.5 208h550l-284 723l96 256h21q112 -268 238.5 -580t196.5 -490l70 -179q20 -48 39 -80t32 -48t33.5 -25t30 -10t33.5 -3v-27h-467v27q139 0 41 231l-69 178h-531q-20 -57 -29.5 -89.5t-22.5 -90t-6.5 -91.5t23 -70.5 t62 -53t113.5 -14.5v-27h-457zM418 1786l166 51l362 -334h-47z" />
<glyph unicode="&#xc1;" d="M35 0v27q28 1 44 5.5t42.5 27t52 67.5t63 128t85.5 208h550l-284 723l96 256h21q112 -268 238.5 -580t196.5 -490l70 -179q20 -48 39 -80t32 -48t33.5 -25t30 -10t33.5 -3v-27h-467v27q139 0 41 231l-69 178h-531q-20 -57 -29.5 -89.5t-22.5 -90t-6.5 -91.5t23 -70.5 t62 -53t113.5 -14.5v-27h-457zM450 1503l363 334l166 -52l-482 -282h-47z" />
<glyph unicode="&#xc2;" d="M35 0v27q28 1 44 5.5t42.5 27t52 67.5t63 128t85.5 208h550l-284 723l96 256h21q112 -268 238.5 -580t196.5 -490l70 -179q20 -48 39 -80t32 -48t33.5 -25t30 -10t33.5 -3v-27h-467v27q139 0 41 231l-69 178h-531q-20 -57 -29.5 -89.5t-22.5 -90t-6.5 -91.5t23 -70.5 t62 -53t113.5 -14.5v-27h-457zM408 1505l290 385l293 -385h-49l-244 209l-243 -209h-47z" />
<glyph unicode="&#xc3;" d="M35 0v27q28 1 44 5.5t42.5 27t52 67.5t63 128t85.5 208h550l-284 723l96 256h21q112 -268 238.5 -580t196.5 -490l70 -179q20 -48 39 -80t32 -48t33.5 -25t30 -10t33.5 -3v-27h-467v27q139 0 41 231l-69 178h-531q-20 -57 -29.5 -89.5t-22.5 -90t-6.5 -91.5t23 -70.5 t62 -53t113.5 -14.5v-27h-457zM231 1573q34 87 85.5 142t100 72t92.5 21t71 -3l26 -7l236 -90q27 -10 69.5 -11t89 7.5t87.5 34.5t59 65l18 -8q-26 -64 -60.5 -111.5t-69 -71.5t-71 -38t-67.5 -15t-56 0.5t-39 5.5l-14 5l-233 88q-28 10 -69.5 12.5t-87.5 -4.5t-87.5 -33 t-60.5 -69z" />
<glyph unicode="&#xc4;" d="M35 0v27q28 1 44 5.5t42.5 27t52 67.5t63 128t85.5 208h550l-284 723l96 256h21q112 -268 238.5 -580t196.5 -490l70 -179q20 -48 39 -80t32 -48t33.5 -25t30 -10t33.5 -3v-27h-467v27q139 0 41 231l-69 178h-531q-20 -57 -29.5 -89.5t-22.5 -90t-6.5 -91.5t23 -70.5 t62 -53t113.5 -14.5v-27h-457zM440 1694q0 40 27.5 68t67.5 28q38 0 66 -28t28 -68q0 -38 -28 -66.5t-66 -28.5q-39 0 -67 28t-28 67zM766 1694q0 40 28 68t66 28q40 0 68 -28t28 -68q0 -38 -28 -66.5t-68 -28.5q-38 0 -66 28.5t-28 66.5z" />
<glyph unicode="&#xc5;" d="M35 0v27q28 1 44 5.5t42.5 27t52 67.5t63 128t85.5 208h550l-284 723l96 256h21q112 -268 238.5 -580t196.5 -490l70 -179q20 -48 39 -80t32 -48t33.5 -25t30 -10t33.5 -3v-27h-467v27q139 0 41 231l-69 178h-531q-20 -57 -29.5 -89.5t-22.5 -90t-6.5 -91.5t23 -70.5 t62 -53t113.5 -14.5v-27h-457zM496 1800q0 85 59 145t143 60q83 0 143 -60t60 -145q0 -83 -60 -142t-143 -59q-84 0 -143 58.5t-59 142.5zM565 1800q0 -54 39 -92.5t94 -38.5t93 38.5t38 92.5q0 56 -38 94.5t-93 38.5q-56 0 -94.5 -38.5t-38.5 -94.5z" />
<glyph unicode="&#xc6;" horiz-adv-x="1923" d="M20 0v27q27 1 49 8.5t58.5 35.5t77.5 78t101 141.5t132 219.5h486v739q0 95 -34.5 130.5t-111.5 35.5v27h357v-1442h-340v27q47 0 73.5 15.5t41 62.5t14.5 133v245h-463q-54 -99 -86 -173.5t-41 -124t-4 -81.5t29 -48.5t53.5 -22.5t74.5 -6v-27h-467zM1294 0v29 q50 1 91.5 5.5t90.5 15.5t87 29t76 48t65 70t46.5 98t25.5 129h26v-424h-508zM1294 713v26q208 14 217 207h27v-440h-27q-9 193 -217 207zM1294 1413v29h482v-371h-27q-5 84 -35.5 146.5t-72.5 98t-104 58t-117.5 30t-125.5 9.5z" />
<glyph unicode="&#xc7;" horiz-adv-x="1374" d="M82 721q0 319 170.5 514.5t458.5 220.5v-26q-62 -8 -112.5 -31t-99.5 -74t-82 -127.5t-53 -198t-20 -278.5q0 -159 20.5 -281.5t54 -198.5t82.5 -126.5t99 -72.5t111 -30v-26q-287 25 -458 221.5t-171 513.5zM627 -367q6 20 24.5 28.5t38.5 0.5q20 -7 28.5 -25t2.5 -38 q-9 -18 -21 -21q-4 -1 1.5 -6.5t23.5 -10t45 -3.5q55 0 89 31.5t34 88.5q0 24 -9.5 50t-34 55t-66.5 38t-107 -1l16 43q105 31 171 10t95.5 -67.5t22.5 -102.5q-6 -51 -30 -87t-57 -53t-63.5 -24t-60.5 -6q-37 0 -68.5 10.5t-44.5 20t-20 18.5q-20 20 -10 51zM872 12 q138 19 241.5 126t121.5 288h27l22 -317q-97 -65 -190.5 -92.5t-221.5 -32.5v28zM872 1432v26q134 -3 233.5 -31t178.5 -92l-22 -315h-27q-37 197 -134 296.5t-229 115.5z" />
<glyph unicode="&#xc8;" horiz-adv-x="1220" d="M66 0v27q62 0 85 51t23 162v983q0 102 -22 147t-86 45v27h319v-1442h-319zM324 1786l165 51l363 -334h-47zM545 0v29q56 1 99 5t97 14.5t94.5 27.5t82.5 47t70.5 70.5t50 99.5t28.5 133h27v-426h-549zM545 713v30q37 1 65.5 5t65.5 17t61.5 34t44 59t23.5 90h26v-440h-26 q-4 51 -23.5 89t-44.5 59t-61.5 34t-65.5 17.5t-65 5.5zM545 1413v29h522v-369h-27q-4 62 -22 112t-45 84.5t-66.5 60t-79 40.5t-91 24.5t-94.5 13.5t-97 5z" />
<glyph unicode="&#xc9;" horiz-adv-x="1220" d="M66 0v27q62 0 85 51t23 162v983q0 102 -22 147t-86 45v27h319v-1442h-319zM313 1503l363 334l166 -51l-482 -283h-47zM545 0v29q56 1 99 5t97 14.5t94.5 27.5t82.5 47t70.5 70.5t50 99.5t28.5 133h27v-426h-549zM545 713v30q37 1 65.5 5t65.5 17t61.5 34t44 59t23.5 90 h26v-440h-26q-4 51 -23.5 89t-44.5 59t-61.5 34t-65.5 17.5t-65 5.5zM545 1413v29h522v-369h-27q-4 62 -22 112t-45 84.5t-66.5 60t-79 40.5t-91 24.5t-94.5 13.5t-97 5z" />
<glyph unicode="&#xca;" horiz-adv-x="1220" d="M66 0v27q62 0 85 51t23 162v983q0 102 -22 147t-86 45v27h319v-1442h-319zM291 1505l291 385l292 -385h-49l-243 209l-244 -209h-47zM545 0v29q56 1 99 5t97 14.5t94.5 27.5t82.5 47t70.5 70.5t50 99.5t28.5 133h27v-426h-549zM545 713v30q37 1 65.5 5t65.5 17t61.5 34 t44 59t23.5 90h26v-440h-26q-4 51 -23.5 89t-44.5 59t-61.5 34t-65.5 17.5t-65 5.5zM545 1413v29h522v-369h-27q-4 62 -22 112t-45 84.5t-66.5 60t-79 40.5t-91 24.5t-94.5 13.5t-97 5z" />
<glyph unicode="&#xcb;" horiz-adv-x="1220" d="M66 0v27q62 0 85 51t23 162v983q0 102 -22 147t-86 45v27h319v-1442h-319zM324 1694q0 40 27 68t67 28q38 0 66 -28t28 -68q0 -38 -28 -66.5t-66 -28.5q-39 0 -66.5 28t-27.5 67zM545 0v29q56 1 99 5t97 14.5t94.5 27.5t82.5 47t70.5 70.5t50 99.5t28.5 133h27v-426h-549 zM545 713v30q37 1 65.5 5t65.5 17t61.5 34t44 59t23.5 90h26v-440h-26q-4 51 -23.5 89t-44.5 59t-61.5 34t-65.5 17.5t-65 5.5zM545 1413v29h522v-369h-27q-4 62 -22 112t-45 84.5t-66.5 60t-79 40.5t-91 24.5t-94.5 13.5t-97 5zM649 1694q0 40 28 68t66 28q40 0 68.5 -28 t28.5 -68q0 -38 -28.5 -66.5t-68.5 -28.5q-38 0 -66 28.5t-28 66.5z" />
<glyph unicode="&#xcc;" horiz-adv-x="704" d="M78 1786l166 51l362 -334h-47zM106 0h498v27q-143 0 -143 192v1034q0 90 36 126t107 36v27h-498v-27q72 0 108 -35.5t36 -126.5v-1034q0 -192 -144 -192v-27z" />
<glyph unicode="&#xcd;" horiz-adv-x="704" d="M86 1503l363 334l165 -51l-481 -283h-47zM106 0v27q144 0 144 192v1034q0 91 -36 126.5t-108 35.5v27h498v-27q-71 0 -107 -36t-36 -126v-1034q0 -192 143 -192v-27h-498z" />
<glyph unicode="&#xce;" horiz-adv-x="704" d="M66 1505l290 385l293 -385h-49l-244 209l-243 -209h-47zM106 0h498v27q-143 0 -143 192v1034q0 90 36 126t107 36v27h-498v-27q72 0 108 -35.5t36 -126.5v-1034q0 -192 -144 -192v-27z" />
<glyph unicode="&#xcf;" horiz-adv-x="704" d="M98 1694q0 40 28 68t67 28q40 0 68 -28t28 -68q0 -38 -28.5 -66.5t-67.5 -28.5q-38 0 -66.5 28.5t-28.5 66.5zM106 0h498v27q-143 0 -143 192v1034q0 90 36 126t107 36v27h-498v-27q72 0 108 -35.5t36 -126.5v-1034q0 -192 -144 -192v-27zM426 1694q0 40 27 68t67 28 q39 0 67.5 -28.5t28.5 -67.5q0 -38 -29 -66.5t-67 -28.5q-39 0 -66.5 28t-27.5 67z" />
<glyph unicode="&#xd0;" horiz-adv-x="1456" d="M41 700v39h186v461q0 98 -35.5 156.5t-101.5 58.5v27h350v-703h293v-39h-293v-700h-350v27q66 0 101.5 56.5t35.5 160.5v456h-186zM600 2v25q53 2 96.5 8.5t96.5 25t94 48.5t81.5 82.5t67.5 122.5t43.5 173t16.5 230q0 124 -16.5 226t-43 172t-67 123.5t-82 85t-94 52 t-97 28.5t-96.5 11v25q86 -3 161.5 -14.5t152 -36t139 -61t117.5 -93.5t92.5 -129t59 -171t21.5 -218q0 -122 -21.5 -222t-58.5 -172.5t-92.5 -128t-117.5 -90.5t-139.5 -57.5t-152 -32.5t-161.5 -12z" />
<glyph unicode="&#xd1;" horiz-adv-x="1652" d="M18 1415v27h379l912 -1176v-266h-66l-981 1262q-24 30 -46.5 53.5t-39 39t-35.5 27t-30 17t-27.5 9.5t-23 4.5t-22.5 1.5t-20 1zM49 0v27q71 0 124 21t84 64.5t50 84t26.5 107t9 103.5t1.5 101v4h29q0 -42 0.5 -65.5t2.5 -68.5t6.5 -73t14 -69t22.5 -67t33.5 -56 t46.5 -46.5t62.5 -28t79.5 -11.5v-27h-592zM348 1573q25 63 59.5 110t69.5 71t71 38t67.5 15.5t56 0t38.5 -5.5l15 -4l233 -90q27 -10 70 -11t89.5 7.5t88 34.5t58.5 65l20 -8q-26 -64 -60.5 -111.5t-69 -71.5t-71 -38t-67.5 -15t-56 0.5t-39 5.5l-14 5l-235 88 q-28 10 -69.5 12.5t-87.5 -4.5t-87.5 -33t-60.5 -69zM1014 1415v27h585v-27q-60 0 -107.5 -17t-77.5 -41t-51 -67.5t-31.5 -77.5t-16 -91.5t-6 -88.5t-0.5 -87v-13h-27v4q0 39 -0.5 60.5t-2 62.5t-5 65.5t-9.5 62t-16.5 61.5t-24.5 53.5t-34 47.5t-45 34.5t-58.5 24 t-72.5 7.5z" />
<glyph unicode="&#xd2;" horiz-adv-x="1511" d="M84 711q0 145 36.5 272t107.5 228.5t184 166t256 78.5v-29q-80 -14 -141.5 -57.5t-109.5 -126t-73 -216.5t-25 -316q0 -183 25 -315t73 -210.5t109 -119t142 -52.5v-28q-144 14 -256.5 75t-183.5 158.5t-107.5 222t-36.5 269.5zM500 1786l166 51l362 -334h-47zM827 -14 v28q81 12 142 52.5t109.5 119t74 211t25.5 314.5q0 147 -17 263t-47 195.5t-75 134.5t-96.5 83.5t-115.5 39.5v29q144 -14 258 -79t185 -166t108 -228t37 -272t-37 -270t-108.5 -222t-184.5 -158t-258 -75z" />
<glyph unicode="&#xd3;" horiz-adv-x="1511" d="M84 711q0 145 36.5 272t107.5 228.5t184 166t256 78.5v-29q-80 -14 -141.5 -57.5t-109.5 -126t-73 -216.5t-25 -316q0 -183 25 -315t73 -210.5t109 -119t142 -52.5v-28q-144 14 -256.5 75t-183.5 158.5t-107.5 222t-36.5 269.5zM504 1503l363 334l166 -52l-482 -282h-47z M827 -14v28q81 12 142 52.5t109.5 119t74 211t25.5 314.5q0 147 -17 263t-47 195.5t-75 134.5t-96.5 83.5t-115.5 39.5v29q144 -14 258 -79t185 -166t108 -228t37 -272t-37 -270t-108.5 -222t-184.5 -158t-258 -75z" />
<glyph unicode="&#xd4;" horiz-adv-x="1511" d="M84 711q0 145 36.5 272t107.5 228.5t184 166t256 78.5v-29q-80 -14 -141.5 -57.5t-109.5 -126t-73 -216.5t-25 -316q0 -183 25 -315t73 -210.5t109 -119t142 -52.5v-28q-144 14 -256.5 75t-183.5 158.5t-107.5 222t-36.5 269.5zM465 1505l291 385l293 -385h-50l-243 209 l-244 -209h-47zM827 -14v28q81 12 142 52.5t109.5 119t74 211t25.5 314.5q0 147 -17 263t-47 195.5t-75 134.5t-96.5 83.5t-115.5 39.5v29q144 -14 258 -79t185 -166t108 -228t37 -272t-37 -270t-108.5 -222t-184.5 -158t-258 -75z" />
<glyph unicode="&#xd5;" horiz-adv-x="1511" d="M84 711q0 145 36.5 272t107.5 228.5t184 166t256 78.5v-29q-80 -14 -141.5 -57.5t-109.5 -126t-73 -216.5t-25 -316q0 -183 25 -315t73 -210.5t109 -119t142 -52.5v-28q-144 14 -256.5 75t-183.5 158.5t-107.5 222t-36.5 269.5zM291 1573q25 63 59.5 110t69.5 71t71 38 t67.5 15.5t56 0t39.5 -5.5l14 -4l233 -90q27 -10 70 -11t89.5 7.5t87.5 34.5t58 65l21 -8q-26 -64 -60.5 -111.5t-69 -71.5t-71 -38t-67.5 -15t-56 0.5t-39 5.5l-14 5l-236 88q-28 10 -69.5 12t-87.5 -5t-87.5 -33t-60.5 -68zM827 -14v28q81 12 142 52.5t109.5 119t74 211 t25.5 314.5q0 147 -17 263t-47 195.5t-75 134.5t-96.5 83.5t-115.5 39.5v29q144 -14 258 -79t185 -166t108 -228t37 -272t-37 -270t-108.5 -222t-184.5 -158t-258 -75z" />
<glyph unicode="&#xd6;" horiz-adv-x="1511" d="M84 711q0 145 36.5 272t107.5 228.5t184 166t256 78.5v-29q-80 -14 -141.5 -57.5t-109.5 -126t-73 -216.5t-25 -316q0 -183 25 -315t73 -210.5t109 -119t142 -52.5v-28q-144 14 -256.5 75t-183.5 158.5t-107.5 222t-36.5 269.5zM494 1694q0 40 28 68t66 28q40 0 68 -28 t28 -68t-28 -67.5t-68 -27.5q-38 0 -66 27.5t-28 67.5zM821 1694q0 40 27 68t67 28q39 0 68 -28.5t29 -67.5t-29 -67t-68 -28q-40 0 -67 27.5t-27 67.5zM827 -14v28q81 12 142 52.5t109.5 119t74 211t25.5 314.5q0 147 -17 263t-47 195.5t-75 134.5t-96.5 83.5t-115.5 39.5 v29q144 -14 258 -79t185 -166t108 -228t37 -272t-37 -270t-108.5 -222t-184.5 -158t-258 -75z" />
<glyph unicode="&#xd7;" horiz-adv-x="1228" d="M121 129l393 393l-391 387l102 105l389 -389l392 389l100 -103l-391 -389l393 -393l-100 -102l-394 393l-391 -393z" />
<glyph unicode="&#xd8;" horiz-adv-x="1513" d="M86 713q0 145 36.5 272t107.5 227.5t184.5 165t257.5 78.5v-29q-81 -14 -143 -57t-110.5 -124.5t-74 -215.5t-25.5 -317q0 -345 109 -520l637 1069q-78 139 -234 165v29q170 -15 291 -98l101 168h45l-115 -189q129 -101 196.5 -264.5t67.5 -359.5q0 -116 -22.5 -219 t-70 -191.5t-116 -155t-165 -108.5t-212.5 -53v28q80 12 140.5 52.5t108.5 119.5t73 211.5t25 315.5q0 326 -93 510l-636 -1065q74 -121 223 -144v-28q-157 15 -277 84l-84 -142h-43l99 162q-139 93 -210 255t-71 368z" />
<glyph unicode="&#xd9;" horiz-adv-x="1466" d="M39 1415v27h510v-27q-38 0 -63.5 -5.5t-50.5 -23t-37.5 -55.5t-12.5 -96v-760q0 -189 102.5 -295t272.5 -106q162 0 265 109t103 300h27q1 -132 -40.5 -232t-113.5 -157t-158 -84.5t-186 -27.5t-186 33t-150.5 96t-101.5 161t-37 220v747q0 98 -35.5 137t-107.5 39z M465 1786l166 51l362 -334h-47zM887 1415v27h530v-27q-76 1 -128 -20.5t-78 -49t-39 -85t-15 -95t-2 -112.5v-4.5v-4v-4.5h-27q0 41 -0.5 64.5t-2.5 61t-6.5 59.5t-13 52t-20.5 47.5t-30 37t-41.5 30t-55.5 17t-71 6.5z" />
<glyph unicode="&#xda;" horiz-adv-x="1466" d="M39 1415v27h510v-27q-38 0 -63.5 -5.5t-50.5 -23t-37.5 -55.5t-12.5 -96v-760q0 -189 102.5 -295t272.5 -106q162 0 265 109t103 300h27q1 -132 -40.5 -232t-113.5 -157t-158 -84.5t-186 -27.5t-186 33t-150.5 96t-101.5 161t-37 220v747q0 98 -35.5 137t-107.5 39z M477 1503l363 334l166 -51l-482 -283h-47zM887 1415v27h530v-27q-76 1 -128 -20.5t-78 -49t-39 -85t-15 -95t-2 -112.5v-4.5v-4v-4.5h-27q0 41 -0.5 64.5t-2.5 61t-6.5 59.5t-13 52t-20.5 47.5t-30 37t-41.5 30t-55.5 17t-71 6.5z" />
<glyph unicode="&#xdb;" horiz-adv-x="1466" d="M39 1415v27h510v-27q-38 0 -63.5 -5.5t-50.5 -23t-37.5 -55.5t-12.5 -96v-760q0 -189 102.5 -295t272.5 -106q162 0 265 109t103 300h27q1 -132 -40.5 -232t-113.5 -157t-158 -84.5t-186 -27.5t-186 33t-150.5 96t-101.5 161t-37 220v747q0 98 -35.5 137t-107.5 39z M432 1505l291 385l293 -385h-49l-244 209l-244 -209h-47zM887 1415v27h530v-27q-76 1 -128 -20.5t-78 -49t-39 -85t-15 -95t-2 -112.5v-4.5v-4v-4.5h-27q0 41 -0.5 64.5t-2.5 61t-6.5 59.5t-13 52t-20.5 47.5t-30 37t-41.5 30t-55.5 17t-71 6.5z" />
<glyph unicode="&#xdc;" horiz-adv-x="1466" d="M39 1415v27h510v-27q-38 0 -63.5 -5.5t-50.5 -23t-37.5 -55.5t-12.5 -96v-760q0 -189 102.5 -295t272.5 -106q162 0 265 109t103 300h27q1 -132 -40.5 -232t-113.5 -157t-158 -84.5t-186 -27.5t-186 33t-150.5 96t-101.5 161t-37 220v747q0 98 -35.5 137t-107.5 39z M469 1694q0 40 28 68t66 28q40 0 68 -28t28 -68t-28 -67.5t-68 -27.5q-39 0 -66.5 27.5t-27.5 67.5zM797 1694q0 40 27 68t67 28q39 0 67.5 -28.5t28.5 -67.5t-28.5 -67t-67.5 -28q-40 0 -67 27.5t-27 67.5zM887 1415v27h530v-27q-76 1 -128 -20.5t-78 -49t-39 -85t-15 -95 t-2 -112.5v-4.5v-4v-4.5h-27q0 41 -0.5 64.5t-2.5 61t-6.5 59.5t-13 52t-20.5 47.5t-30 37t-41.5 30t-55.5 17t-71 6.5z" />
<glyph unicode="&#xdd;" horiz-adv-x="1417" d="M20 1417v25h525v-25h-3q-18 0 -28.5 -0.5t-29.5 -5t-28 -12.5t-16 -25t-3.5 -41t18.5 -61.5t43 -85.5l313 -531v-426q0 -115 41.5 -158.5t114.5 -43.5v-27h-500v27q73 0 113.5 43.5t40.5 158.5v361q-134 236 -231 403t-127 215l-30 49q-22 38 -41.5 65.5t-39.5 44.5 t-33.5 27t-34.5 14.5t-30.5 6t-33.5 2.5zM483 1503l363 334l166 -51l-482 -283h-47zM862 1415v27h529v-27q-21 0 -30.5 -0.5t-32 -4t-36 -11t-38 -22.5t-44 -36.5t-48.5 -55.5t-56.5 -78t-62.5 -104t-72 -134l-19 24q207 422 -90 422z" />
<glyph unicode="&#xde;" horiz-adv-x="1187" d="M94 0v27q65 0 101 55t36 158v993q0 182 -137 182v27h473v-27q-137 0 -137 -182v-993q0 -103 36 -158t101 -55v-27h-473zM590 365v26q63 3 108.5 12t90 33.5t72 65t44.5 108t17 160.5q0 95 -17.5 164t-45 109.5t-73 66t-90 35t-106.5 12.5v25q76 -3 137 -9.5t119.5 -20.5 t103 -35t82.5 -52.5t62 -73t37.5 -97t13.5 -124.5q0 -95 -26.5 -165.5t-71.5 -114.5t-117.5 -71.5t-152 -39t-187.5 -14.5z" />
<glyph unicode="&#xdf;" horiz-adv-x="1196" d="M59 0v25q53 17 67.5 68t14.5 147v790q0 216 78 343.5t236 150.5v-27q-37 -20 -64.5 -66.5t-39.5 -98.5t-19 -101t-8 -81v-32v-1118h-265zM492 180q17 32 53.5 42t68.5 -7t42.5 -55.5t-7.5 -69.5q-17 -33 -53 -41q-14 -4 1 -17q12 -10 36 -16v-28q-55 10 -91 35.5 t-48 54.5q-28 51 -2 102zM535 840v24q37 0 68 6t65.5 26t58.5 53.5t39.5 93.5t15.5 141q0 77 -15.5 135.5t-41.5 93.5t-53 54.5t-58 29.5v29q347 -34 347 -350q0 -72 -26 -130.5t-62.5 -92t-79 -56.5t-72 -31t-45.5 -8q39 0 85.5 -9t101.5 -28t104.5 -54t91 -82t66 -117 t24.5 -154q0 -173 -86 -285t-268 -139v26q137 74 133 412q-1 93 -28.5 167.5t-68.5 119t-94.5 74t-103 40.5t-98.5 11z" />
<glyph unicode="&#xe0;" horiz-adv-x="993" d="M86 193q0 44 11 79t31 62t53 50t74 41.5t96.5 36t116.5 34t139 36.5h1v119q0 147 -63 223t-168 46l-10 22q33 11 68.5 17t54.5 6h20q81 0 137.5 -29t88 -86t44.5 -128t13 -167v-348q0 -5 0.5 -14t5.5 -31t13.5 -39t27.5 -31t45 -14q5 0 13.5 1.5t25.5 14.5t22 37l27 -10 q-12 -53 -63.5 -96t-127.5 -43q-7 0 -19 0.5t-42 9.5t-52.5 26t-41.5 54.5t-19 89.5v342q-340 -79 -340 -271q0 -25 8 -50.5t25.5 -51t51 -41.5t77.5 -16q58 0 96 24q1 -2 21 -32q-98 -84 -228 -84q-5 0 -13.5 0.5t-32.5 4.5t-46 11t-49 22.5t-46 37t-32.5 57t-13.5 78.5z M160 774q40 71 112 119l13 -23q-35 -28 -29 -43l4 -4q39 -6 62 -35q24 -33 18 -71.5t-37 -63.5q-32 -23 -70 -17t-63 38q-32 50 -10 100zM227 1389l166 51l363 -334h-47z" />
<glyph unicode="&#xe1;" horiz-adv-x="993" d="M86 193q0 44 11 79t31 62t53 50t74 41.5t96.5 36t116.5 34t139 36.5h1v119q0 147 -63 223t-168 46l-10 22q33 11 68.5 17t54.5 6h20q81 0 137.5 -29t88 -86t44.5 -128t13 -167v-348q0 -5 0.5 -14t5.5 -31t13.5 -39t27.5 -31t45 -14q5 0 13.5 1.5t25.5 14.5t22 37l27 -10 q-12 -53 -63.5 -96t-127.5 -43q-7 0 -19 0.5t-42 9.5t-52.5 26t-41.5 54.5t-19 89.5v342q-340 -79 -340 -271q0 -25 8 -50.5t25.5 -51t51 -41.5t77.5 -16q58 0 96 24q1 -2 21 -32q-98 -84 -228 -84q-5 0 -13.5 0.5t-32.5 4.5t-46 11t-49 22.5t-46 37t-32.5 57t-13.5 78.5z M160 774q40 71 112 119l13 -23q-35 -28 -29 -43l4 -4q39 -6 62 -35q24 -33 18 -71.5t-37 -63.5q-32 -23 -70 -17t-63 38q-32 50 -10 100zM252 1106l363 334l166 -52l-482 -282h-47z" />
<glyph unicode="&#xe2;" horiz-adv-x="993" d="M86 193q0 44 11 79t31 62t53 50t74 41.5t96.5 36t116.5 34t139 36.5h1v119q0 147 -63 223t-168 46l-10 22q33 11 68.5 17t54.5 6h20q81 0 137.5 -29t88 -86t44.5 -128t13 -167v-348q0 -5 0.5 -14t5.5 -31t13.5 -39t27.5 -31t45 -14q5 0 13.5 1.5t25.5 14.5t22 37l27 -10 q-12 -53 -63.5 -96t-127.5 -43q-7 0 -19 0.5t-42 9.5t-52.5 26t-41.5 54.5t-19 89.5v342q-340 -79 -340 -271q0 -25 8 -50.5t25.5 -51t51 -41.5t77.5 -16q58 0 96 24q1 -2 21 -32q-98 -84 -228 -84q-5 0 -13.5 0.5t-32.5 4.5t-46 11t-49 22.5t-46 37t-32.5 57t-13.5 78.5z M160 774q40 71 112 119l13 -23q-35 -28 -29 -43l4 -4q39 -6 62 -35q24 -33 18 -71.5t-37 -63.5q-32 -23 -70 -17t-63 38q-32 50 -10 100zM221 1059l291 385l293 -385h-49l-244 209l-244 -209h-47z" />
<glyph unicode="&#xe3;" horiz-adv-x="993" d="M55 1153q25 63 59.5 110t69.5 70.5t71 37.5t67.5 15.5t56 -0.5t39.5 -6l14 -4l234 -88q27 -11 70 -12t89.5 7.5t87.5 34.5t58 66l20 -10q-26 -64 -60.5 -111t-69 -70.5t-71 -37.5t-67.5 -15t-56 0.5t-39 5.5l-14 5l-235 88q-28 10 -69.5 12t-87.5 -5t-87.5 -33t-60.5 -68 zM86 193q0 44 11 79t31 62t53 50t74 41.5t96.5 36t116.5 34t139 36.5h1v119q0 147 -63 223t-168 46l-10 22q33 11 68.5 17t54.5 6h20q81 0 137.5 -29t88 -86t44.5 -128t13 -167v-348q0 -5 0.5 -14t5.5 -31t13.5 -39t27.5 -31t45 -14q5 0 13.5 1.5t25.5 14.5t22 37l27 -10 q-12 -53 -63.5 -96t-127.5 -43q-7 0 -19 0.5t-42 9.5t-52.5 26t-41.5 54.5t-19 89.5v342q-340 -79 -340 -271q0 -25 8 -50.5t25.5 -51t51 -41.5t77.5 -16q58 0 96 24q1 -2 21 -32q-98 -84 -228 -84q-5 0 -13.5 0.5t-32.5 4.5t-46 11t-49 22.5t-46 37t-32.5 57t-13.5 78.5z M160 774q40 71 112 119l13 -23q-35 -28 -29 -43l4 -4q39 -6 62 -35q24 -33 18 -71.5t-37 -63.5q-32 -23 -70 -17t-63 38q-32 50 -10 100z" />
<glyph unicode="&#xe4;" horiz-adv-x="993" d="M86 193q0 44 11 79t31 62t53 50t74 41.5t96.5 36t116.5 34t139 36.5h1v119q0 147 -63 223t-168 46l-10 22q33 11 68.5 17t54.5 6h20q81 0 137.5 -29t88 -86t44.5 -128t13 -167v-348q0 -5 0.5 -14t5.5 -31t13.5 -39t27.5 -31t45 -14q5 0 13.5 1.5t25.5 14.5t22 37l27 -10 q-12 -53 -63.5 -96t-127.5 -43q-7 0 -19 0.5t-42 9.5t-52.5 26t-41.5 54.5t-19 89.5v342q-340 -79 -340 -271q0 -25 8 -50.5t25.5 -51t51 -41.5t77.5 -16q58 0 96 24q1 -2 21 -32q-98 -84 -228 -84q-5 0 -13.5 0.5t-32.5 4.5t-46 11t-49 22.5t-46 37t-32.5 57t-13.5 78.5z M160 774q40 71 112 119l13 -23q-35 -28 -29 -43l4 -4q39 -6 62 -35q24 -33 18 -71.5t-37 -63.5q-32 -23 -70 -17t-63 38q-32 50 -10 100zM242 1262q0 40 27 68t67 28q38 0 66 -28t28 -68t-28 -68.5t-66 -28.5q-39 0 -66.5 28.5t-27.5 68.5zM567 1262q0 40 27.5 68t67.5 28 t68 -28t28 -68t-28 -68.5t-68 -28.5t-67.5 28.5t-27.5 68.5z" />
<glyph unicode="&#xe5;" horiz-adv-x="993" d="M86 193q0 44 11 79t31 62t53 50t74 41.5t96.5 36t116.5 34t139 36.5h1v119q0 147 -63 223t-168 46l-10 22q33 11 68.5 17t54.5 6h20q81 0 137.5 -29t88 -86t44.5 -128t13 -167v-348q0 -5 0.5 -14t5.5 -31t13.5 -39t27.5 -31t45 -14q5 0 13.5 1.5t25.5 14.5t22 37l27 -10 q-12 -53 -63.5 -96t-127.5 -43q-7 0 -19 0.5t-42 9.5t-52.5 26t-41.5 54.5t-19 89.5v342q-340 -79 -340 -271q0 -25 8 -50.5t25.5 -51t51 -41.5t77.5 -16q58 0 96 24q1 -2 21 -32q-98 -84 -228 -84q-5 0 -13.5 0.5t-32.5 4.5t-46 11t-49 22.5t-46 37t-32.5 57t-13.5 78.5z M160 774q40 71 112 119l13 -23q-35 -28 -29 -43l4 -4q39 -6 62 -35q24 -33 18 -71.5t-37 -63.5q-32 -23 -70 -17t-63 38q-32 50 -10 100zM293 1307q0 83 59 142.5t142 59.5q84 0 143 -59t59 -143t-59 -143.5t-143 -59.5q-83 0 -142 60t-59 143zM362 1307q0 -56 38.5 -94.5 t93.5 -38.5q56 0 94.5 39t38.5 94t-38.5 94t-94.5 39q-55 0 -93.5 -38.5t-38.5 -94.5z" />
<glyph unicode="&#xe6;" horiz-adv-x="1443" d="M84 193q0 41 11 74t28 59t51.5 50t68.5 41.5t93.5 37.5t110.5 35t135 38v123q0 147 -56 222t-159 47l-13 22q30 11 61.5 17t47.5 6h16q155 0 221 -150q56 64 111.5 100t124.5 46v-29q-77 -28 -123.5 -139t-46.5 -279h426q0 183 -41.5 286.5t-110.5 129.5v31 q161 -15 240.5 -130.5t79.5 -343.5h-594q5 -195 66.5 -290t193.5 -107q89 -7 165 44t107 120l25 -12q-8 -32 -21 -62.5t-40.5 -68t-64 -65t-94.5 -46t-128 -18.5q-91 0 -165.5 36t-122.5 98t-75 142t-30 170v70q-157 -46 -231 -106q-85 -68 -85 -156q0 -26 7.5 -51.5 t24 -51.5t49.5 -42.5t77 -16.5q81 0 135 51l23 -29q-96 -114 -265 -114q-5 0 -13.5 0.5t-32.5 4.5t-46 11.5t-49 23t-46 37t-32.5 56.5t-13.5 78zM152 774q33 70 108 119l14 -25q-14 -11 -21 -21t-6 -15.5t5 -6.5q34 -3 61 -37q23 -32 17.5 -71t-37.5 -64q-31 -23 -69.5 -17 t-61.5 38q-36 49 -10 100z" />
<glyph unicode="&#xe7;" horiz-adv-x="985" d="M92 471q0 120 51 225.5t154 178.5t240 86v-29q-33 -8 -65 -23.5t-67.5 -49.5t-61.5 -80t-43 -120t-17 -165q0 -98 26 -174.5t69.5 -123t95 -71.5t108.5 -31q105 -8 193.5 45t119.5 123l20 -10q-10 -43 -34.5 -86t-67.5 -86.5t-115 -70.5t-161 -27q-85 0 -165 34.5 t-142.5 96.5t-100 155.5t-37.5 202.5zM391 -367q6 20 25 28.5t39 0.5q20 -7 28 -24.5t2 -38.5q-9 -18 -20 -21q-4 -1 1.5 -6.5t23.5 -10t45 -3.5q55 0 88.5 31.5t33.5 88.5q0 24 -9.5 50t-34 55t-66.5 38t-107 -1l17 43q105 31 171 10t95 -67.5t22 -102.5q-5 -41 -22 -72.5 t-39 -50t-50 -29.5t-52 -15t-47 -3q-37 0 -68.5 10.5t-45 20t-20.5 18.5q-20 20 -10 51zM643 934v27q166 -15 225 -121q30 -55 2 -101q-21 -33 -59 -43.5t-72 9.5t-43.5 58.5t11.5 70.5q17 31 57 43q10 0 -4 14q-36 33 -117 43z" />
<glyph unicode="&#xe8;" horiz-adv-x="1005" d="M76 465q0 206 108.5 340t280.5 156v-27q-82 -29 -139.5 -143.5t-57.5 -272.5h477q0 172 -51 278.5t-125 137.5v27q167 -18 260 -135t93 -334h-654q6 -196 84 -293.5t207 -110.5q94 -9 186 40t121 124l23 -10q-8 -39 -34 -81.5t-70 -84t-115.5 -68t-157.5 -26.5 q-125 0 -225 64t-155.5 174.5t-55.5 244.5zM260 1389l166 51l362 -334h-47z" />
<glyph unicode="&#xe9;" horiz-adv-x="1005" d="M76 465q0 206 108.5 340t280.5 156v-27q-82 -29 -139.5 -143.5t-57.5 -272.5h477q0 172 -51 278.5t-125 137.5v27q167 -18 260 -135t93 -334h-654q6 -196 84 -293.5t207 -110.5q94 -9 186 40t121 124l23 -10q-8 -39 -34 -81.5t-70 -84t-115.5 -68t-157.5 -26.5 q-125 0 -225 64t-155.5 174.5t-55.5 244.5zM225 1106l363 334l166 -51l-482 -283h-47z" />
<glyph unicode="&#xea;" horiz-adv-x="1005" d="M76 465q0 206 108.5 340t280.5 156v-27q-82 -29 -139.5 -143.5t-57.5 -272.5h477q0 172 -51 278.5t-125 137.5v27q167 -18 260 -135t93 -334h-654q6 -196 84 -293.5t207 -110.5q94 -9 186 40t121 124l23 -10q-8 -39 -34 -81.5t-70 -84t-115.5 -68t-157.5 -26.5 q-125 0 -225 64t-155.5 174.5t-55.5 244.5zM209 1059l291 385l293 -385h-50l-243 209l-244 -209h-47z" />
<glyph unicode="&#xeb;" horiz-adv-x="1005" d="M76 465q0 206 108.5 340t280.5 156v-27q-82 -29 -139.5 -143.5t-57.5 -272.5h477q0 172 -51 278.5t-125 137.5v27q167 -18 260 -135t93 -334h-654q6 -196 84 -293.5t207 -110.5q94 -9 186 40t121 124l23 -10q-8 -39 -34 -81.5t-70 -84t-115.5 -68t-157.5 -26.5 q-125 0 -225 64t-155.5 174.5t-55.5 244.5zM260 1262q0 40 27 68t67 28t68.5 -28t28.5 -68t-28.5 -68.5t-68.5 -28.5q-39 0 -66.5 28.5t-27.5 68.5zM588 1262q0 40 27 68t67 28q38 0 66 -28t28 -68t-28 -68.5t-66 -28.5q-39 0 -66.5 28.5t-27.5 68.5z" />
<glyph unicode="&#xec;" horiz-adv-x="501" d="M-18 1389l165 51l363 -334h-47zM57 881q63 -17 84 -42.5t21 -80.5v-568q0 -85 -13.5 -116t-68.5 -47v-27h344v27q-54 13 -69 43.5t-15 119.5v775l-283 -60v-24z" />
<glyph unicode="&#xed;" horiz-adv-x="501" d="M4 1106l363 334l165 -51l-481 -283h-47zM57 881v24l283 60v-775q0 -89 15 -119.5t69 -43.5v-27h-344v27q55 16 68.5 47t13.5 116v568q0 55 -21 80.5t-84 42.5z" />
<glyph unicode="&#xee;" horiz-adv-x="501" d="M-39 1059l291 385l293 -385h-49l-244 209l-244 -209h-47zM57 881q63 -17 84 -42.5t21 -80.5v-568q0 -85 -13.5 -116t-68.5 -47v-27h344v27q-54 13 -69 43.5t-15 119.5v775l-283 -60v-24z" />
<glyph unicode="&#xef;" horiz-adv-x="501" d="M-18 1262q0 40 27 68t67 28t68 -28t28 -68t-28 -68.5t-68 -28.5q-39 0 -66.5 28.5t-27.5 68.5zM57 881v24l283 60v-775q0 -89 15 -119.5t69 -43.5v-27h-344v27q55 16 68.5 47t13.5 116v568q0 55 -21 80.5t-84 42.5zM309 1262q0 40 27 68t67 28q39 0 67 -28t28 -68 t-28.5 -68.5t-66.5 -28.5q-39 0 -66.5 28.5t-27.5 68.5z" />
<glyph unicode="&#xf0;" horiz-adv-x="1110" d="M76 438q3 91 29 171.5t75 145t128.5 102.5t180.5 38q91 0 176.5 -37.5t133.5 -126.5q-1 146 -37 288t-92 232l-324 -166l-29 23l336 174q-118 154 -311 154v24q225 0 401 -133l207 111l31 -25l-209 -110q105 -105 174.5 -271t69.5 -360q0 -191 -44 -334.5t-140.5 -236 t-239.5 -113.5v28q109 36 158 194.5t49 467.5q-34 58 -100 111t-148 53q-118 0 -185.5 -113t-72.5 -313q-8 -339 139 -400v-28q-160 27 -261.5 141.5t-94.5 308.5z" />
<glyph unicode="&#xf1;" horiz-adv-x="1036" d="M20 881v24l281 60v-777q0 -86 15.5 -117t68.5 -44v-27h-344v27q55 16 68.5 46.5t13.5 114.5v572q0 55 -20.5 79.5t-82.5 41.5zM59 1153q25 63 59.5 110t69.5 70.5t71 37.5t67.5 15.5t56 -0.5t39.5 -6l14 -4l234 -88q27 -11 70 -12t89.5 7.5t87.5 34.5t58 66l20 -10 q-26 -64 -60.5 -111t-69 -70.5t-71 -37.5t-67.5 -15t-56 0.5t-39 5.5l-14 5l-235 88q-28 10 -69.5 12t-87.5 -5t-87.5 -33t-60.5 -68zM371 850q52 52 116.5 83.5t128.5 31.5q134 0 208.5 -76t74.5 -252v-447q0 -88 15 -120t69 -45v-25h-344v25q55 16 68.5 48t13.5 117v441 q0 106 -55.5 168.5t-155.5 62.5q-61 0 -115 -41z" />
<glyph unicode="&#xf2;" horiz-adv-x="1130" d="M82 473q0 198 109.5 334.5t308.5 153.5v-27q-67 -12 -111.5 -56.5t-71 -145t-26.5 -259.5t26.5 -260.5t71 -145.5t111.5 -55v-28q-133 12 -229 81t-142.5 174t-46.5 234zM289 1389l166 51l362 -334h-47zM606 12q67 11 111.5 55t71 145.5t26.5 260.5t-26.5 259.5t-71 145 t-111.5 56.5v27q202 -17 311 -153t109 -335q0 -96 -27 -180t-78 -150t-132 -108t-183 -51v28z" />
<glyph unicode="&#xf3;" horiz-adv-x="1110" d="M82 473q0 198 109.5 334.5t308.5 153.5v-27q-67 -12 -111.5 -56.5t-71 -145t-26.5 -259.5t26.5 -260.5t71 -145.5t111.5 -55v-28q-133 12 -229 81t-142.5 174t-46.5 234zM285 1106l362 334l166 -51l-481 -283h-47zM606 12q67 11 111.5 55t71 145.5t26.5 260.5 t-26.5 259.5t-71 145t-111.5 56.5v27q202 -17 311 -153t109 -335q0 -96 -27 -180t-78 -150t-132 -108t-183 -51v28z" />
<glyph unicode="&#xf4;" horiz-adv-x="1110" d="M82 473q0 198 109.5 334.5t308.5 153.5v-27q-67 -12 -111.5 -56.5t-71 -145t-26.5 -259.5t26.5 -260.5t71 -145.5t111.5 -55v-28q-133 12 -229 81t-142.5 174t-46.5 234zM264 1059l291 385l293 -385h-49l-244 209l-244 -209h-47zM606 12q67 11 111.5 55t71 145.5 t26.5 260.5t-26.5 259.5t-71 145t-111.5 56.5v27q202 -17 311 -153t109 -335q0 -96 -27 -180t-78 -150t-132 -108t-183 -51v28z" />
<glyph unicode="&#xf5;" horiz-adv-x="1110" d="M82 473q0 198 109.5 334.5t308.5 153.5v-27q-67 -12 -111.5 -56.5t-71 -145t-26.5 -259.5t26.5 -260.5t71 -145.5t111.5 -55v-28q-133 12 -229 81t-142.5 174t-46.5 234zM98 1153q25 63 59.5 110t69.5 70.5t71 37.5t67.5 15.5t56 -0.5t38.5 -6l15 -4l234 -88 q27 -11 70 -12t89.5 7.5t87.5 34.5t58 66l20 -10q-26 -64 -60.5 -111t-69 -70.5t-71 -37.5t-67.5 -15t-56 0.5t-39 5.5l-14 5l-235 88q-28 10 -69.5 12t-87.5 -5t-87.5 -33t-60.5 -68zM606 12q67 11 111.5 55t71 145.5t26.5 260.5t-26.5 259.5t-71 145t-111.5 56.5v27 q202 -17 311 -153t109 -335q0 -96 -27 -180t-78 -150t-132 -108t-183 -51v28z" />
<glyph unicode="&#xf6;" horiz-adv-x="1110" d="M82 473q0 198 109.5 334.5t308.5 153.5v-27q-67 -12 -111.5 -56.5t-71 -145t-26.5 -259.5t26.5 -260.5t71 -145.5t111.5 -55v-28q-133 12 -229 81t-142.5 174t-46.5 234zM299 1262q0 40 27 68t67 28t68 -28t28 -68t-28 -68.5t-68 -28.5q-39 0 -66.5 28.5t-27.5 68.5z M606 12q67 11 111.5 55t71 145.5t26.5 260.5t-26.5 259.5t-71 145t-111.5 56.5v27q202 -17 311 -153t109 -335q0 -96 -27 -180t-78 -150t-132 -108t-183 -51v28zM627 1262q0 40 27 68t67 28q38 0 66 -28t28 -68t-28 -68.5t-66 -28.5q-39 0 -66.5 28.5t-27.5 68.5z" />
<glyph unicode="&#xf7;" horiz-adv-x="1280" d="M92 500v135h1098v-135h-1098zM526 123q0 47 33.5 80t79.5 33q47 0 80 -33t33 -80q0 -46 -33 -79.5t-80 -33.5q-46 0 -79.5 33.5t-33.5 79.5zM526 1012q0 46 33.5 79t79.5 33q47 0 80 -33t33 -79t-33 -79.5t-80 -33.5q-46 0 -79.5 33.5t-33.5 79.5z" />
<glyph unicode="&#xf8;" horiz-adv-x="1112" d="M86 471q0 129 46.5 234.5t142.5 175.5t229 82v-29q-67 -12 -111.5 -57t-71 -146t-26.5 -260q0 -211 61 -317l385 667q-43 98 -131 113v29q105 -9 187 -54l96 166h33l-105 -180q102 -62 155.5 -174t53.5 -250q0 -129 -46 -233t-142.5 -173t-231.5 -81v28q67 11 111.5 54.5 t71 144.5t26.5 260q0 205 -63 317l-385 -667q42 -93 133 -109v-28q-106 9 -185 51l-102 -172h-33l111 188q-102 62 -155.5 172.5t-53.5 247.5z" />
<glyph unicode="&#xf9;" horiz-adv-x="1069" d="M35 901v27l291 37v-668q0 -110 57.5 -161.5t153.5 -51.5q78 0 131 39l18 -29q-46 -49 -112.5 -80.5t-133.5 -31.5q-60 0 -108 13t-91 45.5t-67 96t-24 154.5v461v36.5t-1 28.5t-1.5 24.5t-4 17.5t-7 15t-10.5 9t-14 7.5t-20 4t-25.5 4.5t-31.5 2zM252 1389l166 51 l362 -334h-47zM651 901v27l277 37v-793q0 -72 19 -93.5t85 -29.5v-24l-233 -41q-23 -4 -35.5 3.5t-13.5 16.5l-2 10v742v11q0 85 -10 104q-12 23 -63 28z" />
<glyph unicode="&#xfa;" horiz-adv-x="1069" d="M35 901v27l291 37v-668q0 -110 57.5 -161.5t153.5 -51.5q78 0 131 39l18 -29q-46 -49 -112.5 -80.5t-133.5 -31.5q-60 0 -108 13t-91 45.5t-67 96t-24 154.5v461v36.5t-1 28.5t-1.5 24.5t-4 17.5t-7 15t-10.5 9t-14 7.5t-20 4t-25.5 4.5t-31.5 2zM268 1106l363 334 l166 -52l-482 -282h-47zM651 901v27l277 37v-793q0 -72 19 -93.5t85 -29.5v-24l-233 -41q-23 -4 -35.5 3.5t-13.5 16.5l-2 10v742v11q0 85 -10 104q-12 23 -63 28z" />
<glyph unicode="&#xfb;" horiz-adv-x="1069" d="M35 901v27l291 37v-668q0 -110 57.5 -161.5t153.5 -51.5q78 0 131 39l18 -29q-46 -49 -112.5 -80.5t-133.5 -31.5q-60 0 -108 13t-91 45.5t-67 96t-24 154.5v461v36.5t-1 28.5t-1.5 24.5t-4 17.5t-7 15t-10.5 9t-14 7.5t-20 4t-25.5 4.5t-31.5 2zM223 1059l291 385 l293 -385h-49l-244 209l-244 -209h-47zM651 901v27l277 37v-793q0 -72 19 -93.5t85 -29.5v-24l-233 -41q-23 -4 -35.5 3.5t-13.5 16.5l-2 10v742v11q0 85 -10 104q-12 23 -63 28z" />
<glyph unicode="&#xfc;" horiz-adv-x="1069" d="M35 901v27l291 37v-668q0 -110 57.5 -161.5t153.5 -51.5q78 0 131 39l18 -29q-46 -49 -112.5 -80.5t-133.5 -31.5q-60 0 -108 13t-91 45.5t-67 96t-24 154.5v461v36.5t-1 28.5t-1.5 24.5t-4 17.5t-7 15t-10.5 9t-14 7.5t-20 4t-25.5 4.5t-31.5 2zM268 1262q0 40 27 68 t67 28q38 0 66.5 -28t28.5 -68t-28.5 -68.5t-66.5 -28.5q-39 0 -66.5 28.5t-27.5 68.5zM594 1262q0 40 27 68t67 28t68 -28t28 -68t-28 -68.5t-68 -28.5q-39 0 -66.5 28.5t-27.5 68.5zM651 901v27l277 37v-793q0 -72 19 -93.5t85 -29.5v-24l-233 -41q-23 -4 -35.5 3.5 t-13.5 16.5l-2 10v742v11q0 85 -10 104q-12 23 -63 28z" />
<glyph unicode="&#xfd;" horiz-adv-x="1089" d="M10 920v26h424v-26q-37 0 -57 -15t-22 -37t1.5 -44t9.5 -37l7 -15l270 -579l-80 -211h-22l-387 835q-42 96 -144 103zM164 -410.5q-16 41.5 2 82.5q20 42 61.5 58t81.5 -2q42 -17 56 -66q6 -23 31 -3q27 22 48 77l25 -2q-19 -54 -45.5 -97.5t-42 -59t-37.5 -34.5 q-22 -18 -57.5 -22.5t-65.5 8.5q-41 19 -57 60.5zM248 1106l362 334l166 -51l-481 -283h-47zM653 920v26h396v-26q-26 0 -43.5 -4t-44.5 -21.5t-51 -50.5t-55.5 -95.5t-66.5 -152.5l-22 18q7 20 13 42.5t13.5 61t3.5 71.5t-15.5 64t-44.5 49t-83 18z" />
<glyph unicode="&#xfe;" horiz-adv-x="1130" d="M31 1411v27l280 57v-690q43 77 130 118.5t173 41.5q200 0 315 -140.5t115 -359.5q0 -217 -117.5 -341t-310.5 -140v28q97 22 156 123.5t59 300.5q0 237 -74.5 352t-211.5 115q-101 0 -163.5 -65.5t-70.5 -173.5v-385q7 -115 61 -183t138 -84v-26q-116 12 -199 73v-419 q0 -87 14.5 -115t69.5 -41v-27h-344v27q56 16 69 44.5t13 111.5v1663q0 55 -20 76.5t-82 31.5z" />
<glyph unicode="&#xff;" horiz-adv-x="1089" d="M10 920v26h424v-26q-37 0 -57 -15t-22 -37t1.5 -44t9.5 -37l7 -15l270 -579l-80 -211h-22l-387 835q-42 96 -144 103zM164 -410.5q-16 41.5 2 82.5q20 42 61.5 58t81.5 -2q42 -17 56 -66q6 -23 31 -3q27 22 48 77l25 -2q-19 -54 -45.5 -97.5t-42 -59t-37.5 -34.5 q-22 -18 -57.5 -22.5t-65.5 8.5q-41 19 -57 60.5zM283 1262q0 40 27 68t67 28q38 0 66 -28t28 -68t-28 -68.5t-66 -28.5q-39 0 -66.5 28.5t-27.5 68.5zM608 1262q0 40 27 68t67 28t68.5 -28t28.5 -68t-28.5 -68.5t-68.5 -28.5q-39 0 -66.5 28.5t-27.5 68.5zM653 920v26h396 v-26q-26 0 -43.5 -4t-44.5 -21.5t-51 -50.5t-55.5 -95.5t-66.5 -152.5l-22 18q7 20 13 42.5t13.5 61t3.5 71.5t-15.5 64t-44.5 49t-83 18z" />
<glyph unicode="&#x152;" horiz-adv-x="1910" d="M88 709q0 147 31 272.5t94.5 227.5t170.5 166.5t249 78.5v-31q-103 -18 -169.5 -89.5t-104 -226t-37.5 -398.5t37.5 -395.5t103.5 -218.5t170 -83v-26q-115 10 -206.5 52t-154.5 107t-104.5 154t-60.5 191t-19 219zM793 -12v26q122 25 122 189v1020q0 97 -32.5 143 t-89.5 59v27q10 -2 28 -5t27 -5h278v-1444h-272q-7 -1 -29 -5t-32 -5zM1282 -2v29q71 3 125 11.5t116 33.5t104.5 66.5t74.5 114t41 171.5h26v-426h-487zM1282 713v28q188 13 195 205h26v-440h-26q-7 193 -195 207zM1282 1413v29h461v-371h-27q-8 85 -38 147.5t-69.5 98 t-97.5 57.5t-110 29.5t-119 9.5z" />
<glyph unicode="&#x153;" horiz-adv-x="1609" d="M84 469q0 98 21.5 181t65.5 150.5t118 109.5t172 51v-29q-88 -19 -128 -123t-40 -340q0 -235 39.5 -336.5t128.5 -120.5v-28q-98 9 -172 50.5t-118 107.5t-65.5 148t-21.5 179zM565 12q59 12 95 57t55.5 142.5t19.5 257.5t-20 260t-56 146t-94 59v29q180 -18 285 -187 q114 164 254 185v-29q-75 -30 -119.5 -143.5t-44.5 -282.5h420q0 182 -42 289t-108 137v29q318 -36 318 -482h-588q3 -192 66 -284t190 -103q88 -8 167 45t107 119l27 -12q-7 -27 -17 -52t-28 -56.5t-43.5 -57t-59.5 -48.5t-82.5 -35.5t-105.5 -12.5q-103 0 -178 44.5 t-137 131.5q-54 -78 -119 -122t-162 -52v28z" />
<glyph unicode="&#x178;" horiz-adv-x="1417" d="M20 1417v25h525v-25h-3q-18 0 -28.5 -0.5t-29.5 -5t-28 -12.5t-16 -25t-3.5 -41t18.5 -61.5t43 -85.5l313 -531v-426q0 -115 41.5 -158.5t114.5 -43.5v-27h-500v27q73 0 113.5 43.5t40.5 158.5v361q-134 236 -231 403t-127 215l-30 49q-22 38 -41.5 65.5t-39.5 44.5 t-33.5 27t-34.5 14.5t-30.5 6t-33.5 2.5zM457 1696q0 40 28 68t66 28q40 0 68 -28t28 -68t-28 -68.5t-68 -28.5q-38 0 -66 28.5t-28 68.5zM784 1696q0 40 27.5 68t67.5 28q39 0 67.5 -28.5t28.5 -67.5q0 -40 -28.5 -68.5t-67.5 -28.5q-40 0 -67.5 28.5t-27.5 68.5zM862 1415 v27h529v-27q-21 0 -30.5 -0.5t-32 -4t-36 -11t-38 -22.5t-44 -36.5t-48.5 -55.5t-56.5 -78t-62.5 -104t-72 -134l-19 24q207 422 -90 422z" />
<glyph unicode="&#x2c6;" horiz-adv-x="583" d="M0 1087l291 386l293 -386h-49l-244 209l-244 -209h-47z" />
<glyph unicode="&#x2dc;" horiz-adv-x="860" d="M-41 1161q25 63 59.5 110t69.5 70.5t71 37.5t67.5 15.5t56 -0.5t39.5 -6l14 -4l233 -88q27 -11 70 -12t89.5 7.5t87.5 35t58 66.5l21 -11q-26 -64 -60.5 -111t-69 -70.5t-71 -37.5t-67.5 -15t-56 0.5t-39 5.5l-14 5l-235 88q-28 10 -69.5 12t-88 -5t-88 -33t-60.5 -68z " />
<glyph unicode="&#x2000;" horiz-adv-x="1002" />
<glyph unicode="&#x2001;" horiz-adv-x="2005" />
<glyph unicode="&#x2002;" horiz-adv-x="1002" />
<glyph unicode="&#x2003;" horiz-adv-x="2005" />
<glyph unicode="&#x2004;" horiz-adv-x="668" />
<glyph unicode="&#x2005;" horiz-adv-x="501" />
<glyph unicode="&#x2006;" horiz-adv-x="334" />
<glyph unicode="&#x2007;" horiz-adv-x="334" />
<glyph unicode="&#x2008;" horiz-adv-x="250" />
<glyph unicode="&#x2009;" horiz-adv-x="401" />
<glyph unicode="&#x200a;" horiz-adv-x="111" />
<glyph unicode="&#x2010;" horiz-adv-x="909" d="M131 451v139h645v-139h-645z" />
<glyph unicode="&#x2011;" horiz-adv-x="909" d="M131 451v139h645v-139h-645z" />
<glyph unicode="&#x2012;" horiz-adv-x="909" d="M131 451v139h645v-139h-645z" />
<glyph unicode="&#x2013;" horiz-adv-x="1148" d="M0 463v106h1149v-106h-1149z" />
<glyph unicode="&#x2014;" horiz-adv-x="2160" d="M0 463v104h2161v-104h-2161z" />
<glyph unicode="&#x2018;" horiz-adv-x="464" d="M125 1078q-5 57 11.5 112.5t45.5 103.5q16 24 23.5 34.5t26.5 32.5t43.5 40t56.5 35l12 -17q-39 -28 -65 -60.5t-36 -60.5t-12 -52t4.5 -38.5t16.5 -15.5q49 -7 80 -35q35 -35 36 -85t-34 -85t-85 -35t-85 35q-34 34 -39 91z" />
<glyph unicode="&#x2019;" horiz-adv-x="464" d="M118 1316q-1 50 34 85t85 35t85 -35q34 -34 39 -91.5t-12 -112.5t-46 -103q-41 -62 -74 -91q-32 -28 -75 -51l-13 17q39 28 65 60.5t36 60.5t12 52t-4.5 38.5t-16.5 15.5q-48 7 -79 35q-35 35 -36 85z" />
<glyph unicode="&#x201a;" horiz-adv-x="483" d="M116 105q-1 50 34 85t84.5 35t84.5 -35q34 -34 39 -91t-11.5 -112.5t-45.5 -103.5q-16 -24 -23.5 -34t-26.5 -32.5t-43 -40t-56 -34.5l-13 16q39 28 65 61t36 61t12 52t-4.5 38.5t-16.5 15.5q-49 7 -79 34q-35 35 -36 85z" />
<glyph unicode="&#x201c;" horiz-adv-x="894" d="M108 1093.5q-5 57.5 12 112.5t46 103q17 27 30.5 45.5t44.5 46t72 49.5l15 -16q-39 -28 -65.5 -60.5t-37 -60.5t-12.5 -52t4 -38.5t16 -16.5q52 -7 82 -35q35 -35 36 -85t-34 -85t-85 -35t-85 35q-34 35 -39 92.5zM516 1093.5q-5 57.5 11.5 112.5t45.5 103q16 27 30 45.5 t46 46t74 49.5l12 -16q-39 -28 -65.5 -60.5t-36.5 -60.5t-12 -52t4.5 -38.5t17.5 -16.5q50 -7 80 -35q35 -35 36 -85t-34 -85t-85 -35t-85 35q-34 35 -39 92.5z" />
<glyph unicode="&#x201d;" horiz-adv-x="876" d="M116 1312q-1 50 34 85t84.5 35t84.5 -35q34 -35 39 -92t-11.5 -112t-45.5 -103q-17 -28 -30 -46t-45 -46t-74 -50l-13 17q39 28 65.5 60.5t36.5 60.5t12 51.5t-4.5 38t-17.5 16.5q-49 7 -79 35q-35 35 -36 85zM523 1312q-1 50 34 85t85 35t85 -35q34 -35 39 -92 t-11.5 -112t-45.5 -103q-17 -27 -30.5 -45.5t-45 -46.5t-72.5 -50l-14 17q39 28 65.5 60.5t36.5 60.5t12 51.5t-4 38t-16 16.5q-52 7 -82 35q-35 35 -36 85z" />
<glyph unicode="&#x201e;" horiz-adv-x="876" d="M113 108q-1 49 34 85q35 35 85 35t85 -35q34 -35 39 -92.5t-11.5 -112.5t-45.5 -103q-17 -28 -30.5 -46t-45 -45.5t-73.5 -49.5l-13 16q39 28 65.5 60.5t36.5 60.5t12 52t-4.5 38.5t-17.5 16.5q-49 7 -79 35q-36 36 -37 85zM521 108q-1 50 34 85t85 35t85 -35 q34 -35 39 -92.5t-11.5 -112.5t-45.5 -103q-16 -27 -30 -45.5t-45.5 -46t-72.5 -49.5l-14 16q39 28 65.5 60.5t36.5 60.5t12 52t-4 38.5t-16 16.5q-52 7 -82 35q-35 35 -36 85z" />
<glyph unicode="&#x2022;" horiz-adv-x="866" d="M236 698q0 86 59 144.5t143 58.5q85 0 144 -58.5t59 -144.5q0 -83 -59 -141.5t-144 -58.5q-83 0 -142.5 58.5t-59.5 141.5z" />
<glyph unicode="&#x2026;" horiz-adv-x="1452" d="M176 102q0 52 35 87.5t86 35.5q50 0 85.5 -35.5t35.5 -87.5q0 -49 -35.5 -83.5t-85.5 -34.5q-51 0 -86 34t-35 84zM596 102q0 52 35 87.5t86 35.5q50 0 85.5 -35.5t35.5 -87.5q0 -49 -35.5 -83.5t-85.5 -34.5q-51 0 -86 34t-35 84zM1018 102q0 52 35 87.5t86 35.5 t87 -35.5t36 -87.5q0 -49 -36 -83.5t-87 -34.5t-86 34t-35 84z" />
<glyph unicode="&#x202f;" horiz-adv-x="401" />
<glyph unicode="&#x2039;" horiz-adv-x="694" d="M102 545l473 489v-53l-305 -436l305 -424v-53z" />
<glyph unicode="&#x203a;" horiz-adv-x="694" d="M98 68v53l305 424l-305 436v53l473 -489z" />
<glyph unicode="&#x205f;" horiz-adv-x="501" />
<glyph unicode="&#x20ac;" horiz-adv-x="1220" d="M35 596l20 29h193q-4 62 -4 94q0 30 4 100h-213l20 31h195q50 554 438 604v-27q-103 -29 -162.5 -164.5t-70.5 -412.5h450l-20 -31h-432v-100v-94h417l-18 -29h-397q7 -192 39 -317.5t79 -184t115 -80.5v-28q-199 27 -307 185.5t-131 424.5h-215zM848 -14v28 q99 20 163 105.5t64 234.5h27v-270q-71 -49 -126 -70.5t-128 -27.5zM848 1427v29q80 -6 134 -27.5t120 -72.5v-273h-27q0 151 -63.5 237.5t-163.5 106.5z" />
<glyph unicode="&#x2122;" horiz-adv-x="1372" d="M27 1274v168h512v-168h-23q0 42 -14.5 72.5t-31.5 44.5t-42 21.5t-34.5 8t-20.5 0.5h-49v-475q0 -69 59 -69v-23h-203v23q62 0 62 69v475h-49q-14 0 -26 -1t-36 -8.5t-40 -22t-29 -44.5t-13 -71h-22zM600 854v23q36 0 60 16t35 46.5t14.5 60.5t3.5 71v311q-28 39 -90 39 v21h168l213 -469l167 469h150v-21q-66 0 -66 -73v-385q0 -86 70 -86v-23h-213v23q29 0 44 19t15 67v413l-192 -528h-21l-223 500v-277q0 -33 1.5 -57.5t7.5 -52t16.5 -44.5t29.5 -28.5t46 -11.5v-23h-236z" />
<glyph unicode="&#x25fc;" horiz-adv-x="942" d="M0 0v942h942v-942h-942z" />
<glyph unicode="&#xfb01;" horiz-adv-x="1052" d="M37 946h133v23q0 147 26.5 252t80.5 168.5t127 95t174 37.5v-25q-230 -39 -230 -502v-49h283h280v-766q0 -88 15 -119.5t69 -44.5v-16h-344v16q55 16 68.5 47.5t13.5 116.5v606q0 134 -102 134h-283v-746q0 -83 22 -116t79 -42v-16h-359v16q55 11 67.5 41.5t12.5 116.5 v746h-131zM684 1495v27q86 -11 145 -54.5t66 -109.5q22 -72 -16 -123q-28 -35 -73.5 -41t-80.5 20q-35 29 -40.5 73t22.5 81q25 32 71 39q21 0 14 21q-10 29 -57 51q-24 11 -51 16z" />
<glyph unicode="&#xfb02;" horiz-adv-x="1062" d="M16 946h136v82q0 254 91.5 376t254.5 122q122 0 204 -51l230 53v-1348q0 -86 14.5 -113t69.5 -40v-27h-344v27q56 16 68 43t12 110v1143q0 121 -142 143q-25 4 -46 4.5t-51 -7t-54 -25t-49 -53t-41.5 -86.5t-27.5 -131t-11 -181v-41h219l-4 -26h-215v-746 q0 -81 21 -109.5t79 -39.5v-25h-360v25q56 13 69 39.5t13 109.5v746h-134z" />
</font>
</defs>
</svg>
