<?xml version="1.0" standalone="no"?>
<!DOCTYPE svg PUBLIC "-//W3C//DTD SVG 20010904//EN"
 "http://www.w3.org/TR/2001/REC-SVG-20010904/DTD/svg10.dtd">
<svg version="1.0" xmlns="http://www.w3.org/2000/svg"
 width="800.000000pt" height="800.000000pt" viewBox="0 0 800.000000 800.000000"
 preserveAspectRatio="xMidYMid meet">
<metadata>
Created by potrace 1.11, written by Peter Selinger 2001-2013
</metadata>
<g transform="translate(0.000000,800.000000) scale(0.100000,-0.100000)"
fill="#000000" stroke="none">
<path d="M1152 7993 c-12 -2 -32 -18 -44 -34 -40 -54 -40 -89 0 -206 11 -32
34 -105 52 -163 18 -58 40 -130 50 -160 26 -76 91 -288 92 -297 0 -5 5 -19 10
-33 11 -28 119 -369 122 -385 3 -13 76 -244 86 -270 4 -11 12 -36 18 -55 6
-19 29 -95 52 -168 23 -73 43 -138 44 -145 2 -7 8 -25 15 -41 6 -16 13 -38 16
-50 2 -11 4 -22 6 -23 1 -2 2 -6 4 -10 1 -5 4 -15 7 -23 3 -8 22 -69 43 -135
20 -66 39 -127 42 -135 3 -8 7 -19 8 -25 0 -5 4 -17 7 -25 3 -8 10 -31 16 -50
6 -19 28 -91 50 -160 22 -69 46 -145 53 -170 15 -54 14 -51 22 -70 17 -45 36
-114 33 -118 -3 -2 -43 -3 -90 -2 -99 1 -102 1 -176 1 -30 0 -68 0 -85 0 -16
0 -55 0 -85 -1 -30 -1 -59 -1 -65 0 -5 1 -14 1 -20 0 -22 -4 -136 0 -145 5 -6
3 -10 2 -10 -3 0 -5 -17 -6 -37 -3 -31 5 -48 1 -90 -23 -29 -17 -53 -36 -53
-43 0 -7 -5 -13 -10 -13 -6 0 -20 -19 -30 -42 -19 -42 -20 -93 -20 -2387 0
-1789 3 -2353 12 -2384 15 -51 94 -132 138 -140 18 -4 372 -7 787 -7 842 0
789 -5 867 73 42 43 74 114 90 203 3 13 7 28 11 34 4 6 9 23 11 38 3 15 13 56
23 92 11 36 22 79 27 95 4 17 8 32 9 35 0 3 4 14 8 25 3 11 8 31 11 45 3 14
19 75 36 135 17 61 33 117 35 125 2 8 15 58 30 110 14 52 28 102 30 110 5 20
92 339 111 410 8 30 24 88 35 128 11 40 22 81 24 90 2 9 12 44 21 77 9 33 17
65 18 70 2 6 8 30 15 55 8 25 15 52 16 60 2 8 4 15 5 15 1 0 3 7 5 15 2 8 12
47 23 85 11 39 31 115 46 170 15 55 31 104 37 111 5 6 7 13 4 16 -3 3 16 28
42 55 49 52 96 82 129 82 10 1 28 1 39 1 11 0 50 0 87 -1 37 0 71 2 77 5 5 4
12 2 15 -3 3 -5 21 -6 40 -1 19 4 40 4 46 0 7 -4 25 -4 40 0 15 4 33 4 40 0 7
-4 24 -5 39 -1 27 7 74 6 97 -3 7 -3 16 -1 18 3 3 5 24 5 46 1 22 -4 40 -4 40
0 0 4 18 4 40 0 22 -4 42 -5 44 -2 6 6 136 6 142 -1 3 -2 21 -1 40 3 19 4 36
4 39 0 3 -4 20 -4 39 0 19 4 37 5 40 2 7 -7 143 -5 155 2 5 4 12 2 15 -3 3 -5
21 -5 41 -1 19 4 37 4 40 0 3 -4 21 -4 40 0 19 4 37 4 40 0 3 -4 20 -5 37 -1
18 4 48 4 66 0 18 -3 34 -3 37 1 3 4 21 4 40 0 19 -4 37 -4 40 0 2 4 23 4 45
0 22 -4 40 -5 40 -1 0 3 28 7 61 7 52 1 65 5 87 28 21 21 27 37 28 77 1 28 4
53 7 55 2 3 1 21 -4 41 -4 20 -5 41 -3 45 3 5 5 54 4 108 -2 111 -2 112 -1
190 0 30 0 69 0 85 0 17 0 53 0 80 0 28 0 57 0 65 0 8 0 47 0 85 0 39 0 77 0
85 0 8 0 44 0 80 0 36 0 74 0 85 0 11 0 45 0 75 0 30 0 69 0 85 0 17 0 53 0
80 0 28 0 57 0 65 0 8 0 47 0 85 0 39 0 77 0 85 0 8 0 44 0 80 0 36 0 74 0 85
0 11 0 45 0 75 0 30 0 69 0 85 0 17 0 53 0 80 0 28 0 57 0 65 0 8 0 47 1 87 1
40 -1 76 -4 82 -4 5 -2 12 4 16 6 4 8 10 6 14 -3 4 -7 29 -10 57 -4 27 -16 68
-27 90 -35 69 -66 77 -289 72 -8 0 -35 1 -60 2 -25 1 -70 1 -100 0 -30 -1 -59
-1 -65 0 -5 1 -14 1 -20 0 -22 -4 -136 0 -145 5 -6 3 -10 1 -10 -5 0 -6 -5 -8
-11 -5 -5 4 -54 6 -107 5 -53 -1 -104 -1 -112 -1 -50 3 -152 1 -158 -3 -5 -3
-24 -1 -44 3 -20 5 -41 5 -48 1 -7 -4 -27 -4 -45 0 -19 4 -52 4 -74 0 -23 -4
-41 -4 -41 0 0 4 -18 4 -41 0 -22 -4 -55 -4 -74 0 -18 4 -38 4 -45 0 -7 -4
-27 -4 -45 0 -19 4 -52 4 -74 0 -22 -4 -57 -4 -78 -1 -21 4 -63 4 -93 1 -94
-9 -91 -18 -49 150 46 187 53 205 103 258 43 44 140 90 151 72 4 -6 10 -8 15
-5 4 3 54 5 111 5 57 0 129 0 159 0 30 1 62 1 70 1 42 -2 105 1 111 5 4 2 10
0 14 -6 4 -6 10 -8 15 -5 4 3 54 5 111 5 57 0 129 0 159 0 30 1 62 1 70 1 42
-2 105 1 111 5 4 2 10 0 14 -6 4 -6 10 -8 15 -5 4 3 54 5 111 5 57 0 129 0
159 0 30 1 62 1 70 1 42 -2 105 1 111 5 4 2 10 0 14 -6 4 -6 10 -8 15 -5 4 3
54 5 111 5 57 0 129 0 159 0 30 1 62 1 70 1 42 -2 105 1 111 5 4 2 10 0 14 -6
4 -6 10 -8 15 -5 4 3 54 5 111 5 57 0 129 0 159 0 30 1 62 1 70 1 42 -2 105 1
111 5 4 2 10 0 14 -6 4 -6 10 -8 15 -5 7 4 62 5 268 4 29 0 56 3 61 6 6 3 12
1 16 -4 3 -6 11 -8 18 -6 7 3 42 7 78 8 83 5 163 44 178 90 8 20 11 386 11
1131 l0 1101 -23 39 c-25 44 -80 93 -118 104 -25 7 -5627 13 -5667 5z"/>
</g>
</svg>
